<svg id="Capa_1" data-name="Capa 1" xmlns="http://www.w3.org/2000/svg" xmlns:xlink="http://www.w3.org/1999/xlink" viewBox="0 0 371 221"><defs><style>.cls-1{fill:#fff;}.cls-2{mask:url(#mask);}.cls-3{fill:#424f54;}.cls-4{fill:#222c30;}.cls-5{fill:#fcdbbd;}.cls-6{fill:#edba8a;}.cls-7{fill:#ad7b4c;}.cls-8{fill:#de314e;}.cls-9{fill:#900;}.cls-10{fill:#ba1717;}.cls-11{fill:#5b4d45;}.cls-12{mask:url(#mask-2-2);}.cls-13{fill:#966d48;}.cls-14{mask:url(#mask-3);}.cls-15{fill:#8b6141;}.cls-16{mask:url(#mask-4);}.cls-17{mask:url(#mask-5);}.cls-18{fill:#e8b274;}.cls-19{fill:#a5c5e8;}.cls-20{fill:#799dc9;}.cls-21{fill:#402511;}.cls-22{fill:#ffcd05;}.cls-23{fill:#b8952f;}.cls-24{fill:#435055;}.cls-25{fill:#232d30;}.cls-26{fill:#414a4e;}.cls-27{fill:#e6e6e5;}.cls-28{fill:#788890;}.cls-29{fill:#ca3927;}.cls-30{fill:#991b1e;}.cls-31{fill:#da9a5b;}.cls-32{opacity:0.13;isolation:isolate;}.cls-33{fill:#e5b486;}.cls-34{fill:#f8ba2e;}.cls-35{fill:#736357;}.cls-36{fill:#374252;}.cls-37{fill:#653614;}.cls-38{fill:#c79255;}.cls-39{fill:#a87942;}.cls-40{fill:#a0b4ba;}.cls-41{fill:#ffd6cc;}.cls-42{fill:#ba9400;}.cls-43{fill:#e6e6e6;}.cls-44{fill:#c30;}.cls-45{fill:#f8c0b2;}.cls-46{fill:#b08c82;}.cls-47{fill:#422100;}.cls-48{fill:#630;}.cls-49{fill:#fc0;}</style><mask id="mask" x="54.76" y="-8.76" width="100" height="100" maskUnits="userSpaceOnUse"><g id="mask-2"><circle id="path-1" class="cls-1" cx="104.76" cy="41.24" r="50"/></g></mask><mask id="mask-2-2" x="0.34" y="0.14" width="336.44" height="32.49" maskUnits="userSpaceOnUse"><g id="s"><path class="cls-1" d="M8.6.14l3.4,5L7.4,9.36.34,8.42c0,.14,3.32-5.16,8.27-8.28Z"/></g></mask><mask id="mask-3" x="0.08" y="0.13" width="336.62" height="29.51" maskUnits="userSpaceOnUse"><g id="t"><path class="cls-1" d="M3.52,6.18l1-.95L1.14.13.08,6.46Z"/></g></mask><mask id="mask-4" x="0.34" y="0.54" width="368.62" height="49.26" maskUnits="userSpaceOnUse"><g id="u"><path class="cls-1" d="M6.37.54.34,1.7.6,8l5.57,4.36A28.16,28.16,0,0,0,6.37.54Z"/></g></mask><mask id="mask-5" x="0.4" y="0.54" width="368.02" height="42.62" maskUnits="userSpaceOnUse"><g id="v"><path class="cls-1" d="M.4,3.12V1.7l6-1.16L2.7,5.7Z"/></g></mask></defs><title>buho_hero</title><g id="Page-1"><g id="Avatar4"><g class="cls-2"><g id="Group-6-Copy"><path id="Fill-591" class="cls-3" d="M85.76,59.14V19.88a19,19,0,1,1,38,0V59.14Z"/><path id="Fill-592" class="cls-4" d="M104.75.82h0a19,19,0,0,1,19,19.06V59.14h-19Z"/><path id="Fill-593" class="cls-5" d="M96.84,42.13h15.83V54.84l7.91,1.76,2.37.53a19,19,0,0,1-18.19,13.59h0A19,19,0,0,1,86.55,57.13l3.1-.69,7.18-1.6Z"/><path id="Fill-594" class="cls-6" d="M112.66,45.42v9.42L123,57.13a19.1,19.1,0,0,1-7.49,10.27L96.84,48.71V45.42Z"/><path id="Fill-595" class="cls-6" d="M120.58,23.06a3.18,3.18,0,1,0,3.17,3.18,3.17,3.17,0,0,0-3.17-3.18"/><path id="Fill-596" class="cls-7" d="M120.58,24.65a1.59,1.59,0,1,0,1.58,1.59,1.59,1.59,0,0,0-1.58-1.59"/><path id="Fill-597" class="cls-5" d="M88.92,23.06a3.18,3.18,0,1,0,3.17,3.18,3.17,3.17,0,0,0-3.17-3.18"/><path id="Fill-598" class="cls-7" d="M88.92,24.65a1.59,1.59,0,1,0,1.58,1.59,1.59,1.59,0,0,0-1.58-1.59"/><path id="Fill-599" class="cls-5" d="M120.58,19.88v14.3a15.83,15.83,0,1,1-31.66,0V19.88h31.66Z"/><path id="Fill-600" class="cls-6" d="M120.58,19.88v14.3a15.89,15.89,0,0,1-5.47,12L88.92,19.88h31.66Z"/><path id="Fill-601" class="cls-4" d="M107.82,41.33a6.36,6.36,0,0,0,3.27-5.56H98.42a6.36,6.36,0,0,0,3.27,5.56Z"/><path id="Fill-602" class="cls-8" d="M104.75,42.13a6.29,6.29,0,0,0,3.07-.79,6.32,6.32,0,0,0-6.13,0,6.29,6.29,0,0,0,3.07.79"/><path id="Fill-603" class="cls-1" d="M109.5,35.77a1.59,1.59,0,0,1-1.58,1.59h-6.33A1.59,1.59,0,0,1,100,35.77Z"/><path id="Fill-604" class="cls-9" d="M104.75,23.86l-.79-.79.79-.79a3.94,3.94,0,0,1,3.17,1.59,4,4,0,0,1,3.16-1.59h10.29a.79.79,0,0,1,0,1.58H119v2.39a5.94,5.94,0,1,1-11.87,0,2.38,2.38,0,0,0-2.38-2.38Zm6.33,0a2.39,2.39,0,0,0-2.37,2.38,4.35,4.35,0,1,0,8.71,0V23.86Z"/><path id="Fill-605" class="cls-4" d="M93.78,27.28A.79.79,0,0,1,92.91,26,5.51,5.51,0,0,1,99,26a.79.79,0,0,1-.87,1.32,4,4,0,0,0-4.38,0"/><path id="Fill-606" class="cls-4" d="M111.34,27.28a.79.79,0,0,1-.87-1.32,5.51,5.51,0,0,1,6.12,0,.79.79,0,0,1-.87,1.32,4,4,0,0,0-4.38,0"/><path id="Fill-612" class="cls-10" d="M98.42,23.86H92.09v2.38a4.35,4.35,0,1,0,8.71,0,2.39,2.39,0,0,0-2.37-2.38Zm6.33,0a2.38,2.38,0,0,0-2.37,2.38,5.94,5.94,0,1,1-11.87,0V23.85H88.13a.79.79,0,0,1,0-1.58H98.42a4,4,0,0,1,3.16,1.59,4,4,0,0,1,3.17-1.59Z"/><path id="Fill-613" class="cls-7" d="M104,26.24a.79.79,0,1,1,1.58,0v3.18a.79.79,0,0,1-.79.79h-1.58a.8.8,0,0,0,0,1.59h1.58a.79.79,0,0,1,0,1.58h-1.58a2.38,2.38,0,0,1,0-4.77H104Z"/></g></g></g></g><path class="cls-11" d="M293.56,49.54c8.33,7.62,9,19.24,2.29,25.25s-16.13,2-21.09-3c-13.06-13.11-18-40.68-13.93-46.85C271.41,30.66,284.61,41.3,293.56,49.54Z"/><g class="cls-12"><path class="cls-13" d="M321.4,19.6h15.38v13H321.4Z"/></g><g class="cls-14"><path class="cls-15" d="M328.5,19.6h8.2v10h-8.2Z"/></g><g class="cls-16"><path class="cls-13" d="M358.66,34.26H369V49.8h-10.3Z"/></g><g class="cls-17"><path class="cls-15" d="M358.66,34.26h9.76v8.9h-9.76Z"/></g><path class="cls-18" d="M266,27.25l.6-.5a.78.78,0,1,0-1-1.2l-.6.5a.78.78,0,1,0-1-1.2l-1.8,1.5a.78.78,0,1,0-1-1.2L225.66,56l-21.8,7.5,3.2,9.2,22.7-8,38-32.9a.79.79,0,0,0,.1-1.1.78.78,0,0,0-1.1-.1l-2.3,2a.78.78,0,1,1-1-1.2l3.5-3a.79.79,0,0,0,.1-1.1A.89.89,0,0,0,266,27.25Z"/><path class="cls-18" d="M173.26,43.85h18.6v21.7h-18.6"/><path class="cls-19" d="M164.06,118.25h37.2v33.5l-17-16.4a1.54,1.54,0,0,0-1.5-1.5,1.47,1.47,0,0,0-1.5,1.5l-6.2,72.8h-10.8v-89.9Z"/><path class="cls-20" d="M201.16,151.75v56.4h-10.8l-6.2-72.8a1.53,1.53,0,0,0-.4-1Z"/><path class="cls-19" d="M17.19,116.73h37.2v33.5l-17-16.4a1.54,1.54,0,0,0-1.5-1.5,1.47,1.47,0,0,0-1.5,1.5l-6.2,72.8H17.38v-89.9Z"/><path class="cls-20" d="M54.29,150.23v56.4H43.49l-6.2-72.8a1.53,1.53,0,0,0-.4-1Z"/><path class="cls-21" d="M191.86,118.25h9.3v9.3"/><path class="cls-18" d="M164.06,144.55a.79.79,0,0,1-.8.8.8.8,0,0,1-.8-.8h0v-3a.8.8,0,0,0-1.6,0v4.6a.79.79,0,0,1-.8.8.8.8,0,0,1-.8-.8h0v.8a.79.79,0,0,1-.8.8.8.8,0,0,1-.8-.8h0v-.8a.79.79,0,0,1-.8.8.8.8,0,0,1-.8-.8h0v-2.3a.79.79,0,0,1-.8.8.8.8,0,0,1-.8-.8h0V84.15h9.3v60.4h.3Z"/><path class="cls-1" d="M148.56,217.45h27.9v2.3a.79.79,0,0,1-.8.8h-26.3a.8.8,0,0,1-.8-.8h0v-2.3Z"/><path class="cls-22" d="M174.86,207.35a.79.79,0,0,1,.8.8v.8a.6.6,0,0,1-.3.6,44.13,44.13,0,0,1,1.1,7.9h-27.9a2.91,2.91,0,0,1,2.1-2.9l9.2-2a6.12,6.12,0,0,0,3.6-3.1.6.6,0,0,1-.1-.4v-.8a.79.79,0,0,1,.8-.8h10.7v-.1Z"/><path class="cls-23" d="M154,213.75l1.6-.3v.9a.79.79,0,0,1-.8.8.8.8,0,0,1-.8-.8h0v-.6Zm3.1-.7,1.5-.3.4,1.4a.73.73,0,1,1-1.4.4l-.5-1.5Zm3.1-.7a9.14,9.14,0,0,0,1.4-.7l.8,1.4a.81.81,0,1,1-1.4.8l-.8-1.5Zm2.3-1.6c.3-.4.6-.9.9-1.3l1.2,1.2a.78.78,0,0,1-1.1,1.1l-1-1Z"/><path class="cls-24" d="M154.76,126.05h4.6v3.1h-4.6"/><path class="cls-25" d="M164.06,126.05h-4.7v3.1h4.7"/><path class="cls-22" d="M154.76,84.15V65.55c0-3.1,1.6-3.9,3.1-4.6l15.5-7.7a9.3,9.3,0,0,0,18.6,0l25.5,6.7c1.5.8,3.1,8.7,3.1,8.7l-19.3,15.5v43.4h-37.2V84.15h-9.3Z"/><path class="cls-23" d="M201.16,90.35v31l-27.9-27.9,18.6-12.4"/><path class="cls-26" d="M171.76,54l1.6-.8v31l-1.6-3.1Zm20.1,21.7,1.5.8v4.7l-1.5,3.1Z"/><path class="cls-25" d="M191.86,53.25v-.1l1.6.8v23.2l-1.6-1.5"/><path class="cls-24" d="M157.86,124.45H161a1.56,1.56,0,0,1,1.6,1.5v3.1a1.5,1.5,0,0,1-1.6,1.5h-3.1a1.47,1.47,0,0,1-1.5-1.5V126A1.42,1.42,0,0,1,157.86,124.45Z"/><path class="cls-1" d="M157.86,126.05H161v3.1h-3.1"/><path class="cls-20" d="M173.26,130.65a10.12,10.12,0,0,1-3.5,4.4,9.53,9.53,0,0,1-5.8,1.8v-1.5a8.44,8.44,0,0,0,4.9-1.6,10.09,10.09,0,0,0,2.7-3.1h1.7Zm18.6,0a10.12,10.12,0,0,0,3.5,4.4,9.53,9.53,0,0,0,5.8,1.8v-1.5a8.44,8.44,0,0,1-4.9-1.6,10.09,10.09,0,0,1-2.7-3.1h-1.7Z"/><path class="cls-27" d="M216.66,217.45h-27.9v2.3a.79.79,0,0,0,.8.8h26.3a.79.79,0,0,0,.8-.8v-2.3Z"/><path class="cls-23" d="M190.36,207.35a.79.79,0,0,0-.8.8v.8a.6.6,0,0,0,.3.6,44.13,44.13,0,0,0-1.1,7.9h27.9a2.91,2.91,0,0,0-2.1-2.9l-9.2-2a6.12,6.12,0,0,1-3.6-3.1.6.6,0,0,0,.1-.4v-.8a.79.79,0,0,0-.8-.8h-10.7Z"/><path class="cls-22" d="M211.26,213.75l-1.5-.3v.9a.8.8,0,1,0,1.6,0v-.6h-.1Zm-3.1-.7-1.5-.3-.4,1.4a.73.73,0,1,0,1.4.4l.5-1.5Zm-3.2-.7a9.14,9.14,0,0,1-1.4-.7l-.8,1.4a.81.81,0,0,0,1.4.8l.8-1.5Zm-2.2-1.6c-.3-.4-.6-.9-.9-1.3l-1.2,1.2a.78.78,0,1,0,1.1,1.1l1-1Z"/><path class="cls-26" d="M173.26,82.65h18.6v10.8h-18.6"/><path class="cls-1" d="M173.26,81.05h18.6v3.1h-18.6"/><path class="cls-28" d="M182.56,82.65a4.67,4.67,0,0,1,4.7,4.6,4.65,4.65,0,1,1-4.7-4.6Z"/><path class="cls-25" d="M182.56,84.55a2.7,2.7,0,1,1-2.7,2.7A2.69,2.69,0,0,1,182.56,84.55Zm7-2.7h1.6v1.5h-1.6"/><path class="cls-5" d="M103.25,140v75.9h-7.7l-1.5-3.1a1.4,1.4,0,0,0,1.5-1.6l-10.2-71.3h17.9v.1Z"/><path class="cls-6" d="M103.25,140v26.6l-16.5-16.4L85.35,140m39,0-10.2,71.3a1.56,1.56,0,0,0,1.5,1.6l-1.5,3.1h-7.7V139.1l17.9.9Z"/><path class="cls-19" d="M129.65,139H80.05V63.1c0-3.1,1.6-3.9,3.1-4.6l13.9-7a7.7,7.7,0,1,0,15.4,0l13.9,7c1.5.8,3.1,1.5,3.1,4.6V139Zm-9.3-65.1a40.45,40.45,0,0,0-3.1,15.5,40,40,0,0,0,3.1,15.7Zm-31,31a40.3,40.3,0,0,0,0-31Z"/><path class="cls-20" d="M118.55,54.5l7.9,4c1.5.8,3.1,1.5,3.1,4.6v24l-9.3-9.3V73.9c-.4,1-.7,1.9-1,2.9l-11.5-11.5Z"/><path class="cls-20" d="M120.35,109.7,92.15,81.5v-.1a7.7,7.7,0,0,0,10.4-.5,3.1,3.1,0,0,1,2.2-.9,2.94,2.94,0,0,1,2.2.9,7.88,7.88,0,0,0,5.5,2.3,8,8,0,0,0,5-1.8c.1-.1.3-.2.5-.4a38,38,0,0,0-.9,8.4,40,40,0,0,0,3.1,15.7C120.35,67.6,120.35,83,120.35,109.7Z"/><path class="cls-1" d="M86.35,56.8l10.7-5.4a7.7,7.7,0,0,0,7.7,7.7,9.32,9.32,0,0,1-18.6-.8c.1-.4.1-.9.2-1.5Z"/><path class="cls-27" d="M123.25,56.8l-10.6-5.4a7.73,7.73,0,0,1-7.8,7.7,9.32,9.32,0,0,0,18.6-.8C123.35,57.9,123.35,57.4,123.25,56.8Z"/><path class="cls-1" d="M104.85,64.6a1.56,1.56,0,0,1,1.6,1.5,1.5,1.5,0,0,1-1.6,1.5,1.47,1.47,0,0,1-1.5-1.5A1.42,1.42,0,0,1,104.85,64.6Z"/><path class="cls-27" d="M106,65.1a1.61,1.61,0,0,1,.5,1.1,1.5,1.5,0,0,1-1.6,1.5,1.61,1.61,0,0,1-1.1-.5Z"/><path class="cls-1" d="M104.85,70.8a1.56,1.56,0,0,1,1.6,1.5,1.5,1.5,0,0,1-1.6,1.5,1.47,1.47,0,0,1-1.5-1.5A1.42,1.42,0,0,1,104.85,70.8Z"/><path class="cls-27" d="M106,71.3a1.61,1.61,0,0,1,.5,1.1,1.5,1.5,0,0,1-1.6,1.5,1.61,1.61,0,0,1-1.1-.5Z"/><path class="cls-1" d="M87.75,123.5h-7.7v-6.2h7.7m41.9,6.2h-7.8v-6.2h7.8M104.85,77a1.56,1.56,0,0,1,1.6,1.5,1.5,1.5,0,0,1-1.6,1.5,1.47,1.47,0,0,1-1.5-1.5A1.42,1.42,0,0,1,104.85,77Z"/><path class="cls-27" d="M106,77.5a1.61,1.61,0,0,1,.5,1.1,1.5,1.5,0,0,1-1.6,1.5,1.61,1.61,0,0,1-1.1-.5Z"/><path class="cls-1" d="M104.85,83.2a1.56,1.56,0,0,1,1.6,1.5,1.5,1.5,0,0,1-1.6,1.5,1.47,1.47,0,0,1-1.5-1.5A1.42,1.42,0,0,1,104.85,83.2Z"/><path class="cls-27" d="M106,83.7a1.61,1.61,0,0,1,.5,1.1,1.5,1.5,0,0,1-1.6,1.5,1.61,1.61,0,0,1-1.1-.5Z"/><path class="cls-1" d="M104.85,217.5H81.65v1.6a1.47,1.47,0,0,0,1.5,1.5h20.1a1.47,1.47,0,0,0,1.5-1.5v-1.6Z"/><path class="cls-29" d="M81.55,217.5a3.21,3.21,0,0,1,2.3-3l10.8-3a5.44,5.44,0,0,0,4.8,2.9,5.64,5.64,0,0,0,3.8-1.5.73.73,0,0,1,.6-.2c.2.1.4.2.4.4a15.6,15.6,0,0,1,.6,4.4H81.55Z"/><path class="cls-27" d="M104.85,217.5h23.2v1.6a1.47,1.47,0,0,1-1.5,1.5h-20.1a1.56,1.56,0,0,1-1.6-1.5Z"/><path class="cls-30" d="M128.05,217.5a3.21,3.21,0,0,0-2.3-3l-10.8-3a5.44,5.44,0,0,1-4.8,2.9,5.64,5.64,0,0,1-3.8-1.5.73.73,0,0,0-.6-.2c-.2.1-.4.2-.4.4a15.6,15.6,0,0,0-.6,4.4h23.3Z"/><path class="cls-1" d="M83.15,145.2a3.12,3.12,0,0,0,3.1-3.1,3.1,3.1,0,1,0,6.2,0,3.1,3.1,0,1,0,6.2,0,3.1,3.1,0,1,0,6.2,0,3.1,3.1,0,1,0,6.2,0,3.12,3.12,0,0,0,3.1,3.1,3.22,3.22,0,0,0,3.1-2.6,3,3,0,0,0,3.1,2.6,3.12,3.12,0,0,0,3.1-3.1h.1a3.1,3.1,0,1,0,6.2,0V139H80.15v3.1A3,3,0,0,0,83.15,145.2Z"/><path class="cls-5" d="M120.35,137.5a.8.8,0,0,0,1.6,0v-3.1a.8.8,0,1,1,1.6,0V139a.8.8,0,0,0,1.6,0v.8a.8.8,0,1,0,1.6,0V139a.8.8,0,0,0,1.6,0v-2.3a.8.8,0,1,0,1.6,0V123.5h-7.7l-.6,1.1a8.68,8.68,0,0,0-1,4.2v8.7h-.3Zm-31,0a.79.79,0,0,1-.8.8.8.8,0,0,1-.8-.8h0v-3.1a.8.8,0,1,0-1.6,0V139a.79.79,0,0,1-.8.8.8.8,0,0,1-.8-.8h0v.8a.79.79,0,0,1-.8.8.8.8,0,0,1-.8-.8h0V139a.79.79,0,0,1-.8.8.8.8,0,0,1-.8-.8h0v-2.3a.79.79,0,0,1-.8.8.8.8,0,0,1-.8-.8h0V123.5h7.7l.6,1.1a8.68,8.68,0,0,1,1,4.2v8.7Z"/><path class="cls-31" d="M268,220.1h46.2V185.6H268"/><path class="cls-32" d="M314.2,202.86,296.87,220.1h17.32"/><path class="cls-33" d="M285.6,194.23h11v-8.62h-11"/><path class="cls-31" d="M297.8,184.5H344V150H297.8"/><path class="cls-32" d="M344,167.25,326.67,184.5H344"/><path class="cls-33" d="M315.4,158.62h11V150h-11"/><path class="cls-31" d="M315.7,220.1h46.18V185.6h-46.2"/><path class="cls-32" d="M361.88,202.86,344.56,220.1h17.32"/><path class="cls-33" d="M333.3,194.23h11v-8.62h-11"/><path class="cls-34" d="M315.22,150.28h-7.58a1.42,1.42,0,0,1,0-2.85h6.5l5.27-19.51a1.41,1.41,0,0,1,2.73.73l-5.54,20.55A1.47,1.47,0,0,1,315.22,150.28Z"/><path class="cls-34" d="M331.69,150.28h-7.58a1.42,1.42,0,0,1,0-2.85h6.5l3.69-14.35a1.41,1.41,0,1,1,2.73.73l-4,15.39A1.4,1.4,0,0,1,331.69,150.28Z"/><path class="cls-35" d="M345.24,72.83a26.66,26.66,0,1,0-53.33,0c0,39.4,20.16,70.84,55.33,70.84,0,0-2-24.74-2-38.4V72.83Z"/><path class="cls-1" d="M329.46,62.75a8.87,8.87,0,0,0-8.89,8.89v11.2h-4V71.63a8.89,8.89,0,0,0-17.78,0v1.19a19.8,19.8,0,0,0,39.59,0V71.63A8.87,8.87,0,0,0,329.46,62.75Z"/><path class="cls-34" d="M320.57,82.83c0,1.62-2,4.16-2,4.16s-2-2.54-2-4.16Z"/><path class="cls-36" d="M328.27,78a2.84,2.84,0,0,0,2.85-2.69V72a2.85,2.85,0,0,0-5.69,0v3.27A2.81,2.81,0,0,0,328.27,78Z"/><path class="cls-36" d="M308.87,78a2.8,2.8,0,0,1-2.81-2.69V72a2.8,2.8,0,0,1,2.81-2.69A2.86,2.86,0,0,1,311.72,72v3.27A2.84,2.84,0,0,1,308.87,78Z"/><path class="cls-11" d="M361.28,101.84c-2.42-11-12.12-17.43-20.7-14.66s-9.85,12.93-8,19.74c4.81,17.89,26.13,36,33.55,35.55C366.48,130.47,363.9,113.69,361.28,101.84Z"/><path class="cls-37" d="M167.26,25.75a3.12,3.12,0,0,1-3.1-3.1,3.12,3.12,0,0,0,3.1-3.1h3.1v9.3a3.1,3.1,0,0,1-6.2,0A3.05,3.05,0,0,0,167.26,25.75Z"/><path class="cls-21" d="M198.26,25.75a3.12,3.12,0,0,0,3.1-3.1,3.12,3.12,0,0,1-3.1-3.1h-3.1v9.3a3.1,3.1,0,1,0,6.2,0A3.05,3.05,0,0,1,198.26,25.75Z"/><path class="cls-38" d="M198.26,22.65a3.1,3.1,0,1,0,3.1,3.1A3.12,3.12,0,0,0,198.26,22.65Z"/><path class="cls-39" d="M198.26,24.25a1.5,1.5,0,0,0,0,3,1.56,1.56,0,0,0,1.6-1.5A1.63,1.63,0,0,0,198.26,24.25Z"/><path class="cls-18" d="M167.26,22.65a3.1,3.1,0,1,0,3.1,3.1A3.12,3.12,0,0,0,167.26,22.65Z"/><path class="cls-38" d="M167.26,24.25a1.5,1.5,0,0,0,0,3,1.5,1.5,0,1,0,0-3Z"/><path class="cls-18" d="M182.76,4c8.5,0,14.7,7,14.7,15.5V35c0,8.5-6.2,15.5-14.7,15.5s-14.7-7-14.7-15.5V19.55C168.06,11,174.26,4,182.76,4Z"/><path class="cls-38" d="M182.76,4c8.5,0,14.7,7,14.7,15.5V35a15.88,15.88,0,0,1-4,10.7L168,20.25v-.8C168.06,11,174.26,4,182.76,4Z"/><path class="cls-1" d="M175.06,22.65a3.1,3.1,0,1,1-3.1,3.1A3.05,3.05,0,0,1,175.06,22.65Z"/><path class="cls-27" d="M190.56,22.65a3.1,3.1,0,1,1-3.1,3.1A3.05,3.05,0,0,1,190.56,22.65Z"/><path class="cls-26" d="M175.06,24.25a1.56,1.56,0,0,1,1.6,1.5,1.5,1.5,0,0,1-1.6,1.5,1.5,1.5,0,1,1,0-3Z"/><path class="cls-37" d="M167.26,18h1.6v13.9A3.12,3.12,0,0,0,172,35a10.8,10.8,0,0,0,19.1,6.9l7.3,7.3a2.84,2.84,0,0,1-2.1,1.2,3.1,3.1,0,0,1-3.8,1.4,3.16,3.16,0,0,1-2.8,1.7,2.82,2.82,0,0,1-1.5-.4,2.66,2.66,0,0,1-2.4,1.1h-6.2a3,3,0,0,1-2.4-1.1,3.31,3.31,0,0,1-1.5.4,3.16,3.16,0,0,1-2.8-1.7,3.59,3.59,0,0,1-1.1.2,2.92,2.92,0,0,1-2.7-1.6,3.13,3.13,0,0,1-2.7-3.1,3,3,0,0,0,2.8-1.8,2.77,2.77,0,0,1-1.3.3,3.12,3.12,0,0,1-3.1-3.1,2.92,2.92,0,0,0,2.7-1.6h-.4a3.12,3.12,0,0,1-3.1-3.1,3.31,3.31,0,0,0,1.5-.4A3,3,0,0,1,164,35a3.31,3.31,0,0,0,1.5-.4,3,3,0,0,1-1.5-2.7,3.12,3.12,0,0,0,3.1-3.1V18Z"/><path class="cls-21" d="M190.46,42.75a10.81,10.81,0,0,0,3.2-7.7,3.12,3.12,0,0,0,3.1-3.1V18h1.5v10.9a3.12,3.12,0,0,0,3.1,3.1,3.15,3.15,0,0,1-1.6,2.7,2.93,2.93,0,0,0,1.6.4,3.15,3.15,0,0,1-1.6,2.7,2.93,2.93,0,0,0,1.6.4,3.12,3.12,0,0,1-3.1,3.1h-.4a3.11,3.11,0,0,0,2.7,1.6,3.12,3.12,0,0,1-3.1,3.1,2.77,2.77,0,0,1-1.3-.3,3.08,3.08,0,0,0,2.8,1.8,3,3,0,0,1-1.3,2.5Z"/><path class="cls-26" d="M190.56,24.25a1.5,1.5,0,0,1,0,3,1.5,1.5,0,1,1,0-3Z"/><path class="cls-1" d="M173.46,25a.8.8,0,1,1-.8.8A.79.79,0,0,1,173.46,25Zm24.8-5.9v-5.7A12.46,12.46,0,0,0,185.86,1h-6.2a12.46,12.46,0,0,0-12.4,12.4v5.7a47.5,47.5,0,0,1,31,0Z"/><path class="cls-27" d="M198.26,19.15v-5.7A12.46,12.46,0,0,0,185.86,1h-3.1v15.5A44.27,44.27,0,0,1,198.26,19.15Z"/><path class="cls-1" d="M189,25a.8.8,0,1,1-.8.8A.79.79,0,0,1,189,25Z"/><path class="cls-37" d="M175,35h1.6a1.47,1.47,0,0,0,1.5-1.5,1.61,1.61,0,0,1,1.5-1.5l4.6,1.5v3.1a2.45,2.45,0,0,1-1.6-.6,2.2,2.2,0,0,1-1.5.6h-6.2a2.4,2.4,0,0,1-2.3-2.3.8.8,0,0,1,1.6,0A.85.85,0,0,0,175,35Z"/><path class="cls-21" d="M179.66,31.95h6.2a1.61,1.61,0,0,1,1.5,1.5,1.47,1.47,0,0,0,1.5,1.5h1.6a.79.79,0,0,0,.8-.8.8.8,0,0,1,1.6,0,2.26,2.26,0,0,1-2.3,2.3h-6.2Zm-.6-9.8a.78.78,0,0,1-1.2,1,3.93,3.93,0,0,0-2.9-1.3,4.11,4.11,0,0,0-2.9,1.3.91.91,0,0,1-1.1.1.9.9,0,0,1-.1-1.1,5.18,5.18,0,0,1,4-1.8A6,6,0,0,1,179.06,22.15Zm15.5,0a.78.78,0,1,1-1.2,1,3.93,3.93,0,0,0-2.9-1.3,4.11,4.11,0,0,0-2.9,1.3.91.91,0,0,1-1.1.1.9.9,0,0,1-.1-1.1,5.18,5.18,0,0,1,4-1.8A5.64,5.64,0,0,1,194.56,22.15Z"/><path class="cls-18" d="M181.26,28.85a1.5,1.5,0,0,0-1.5,1.6,1.47,1.47,0,0,0,1.5,1.5h4.6l-3.1-3.1Z"/><path class="cls-39" d="M182,25.75a.79.79,0,0,1,.8-.8.74.74,0,0,1,.8.8v3.1a.79.79,0,0,1-.8.8h-1.5a.8.8,0,0,0,0,1.6h1.5a.8.8,0,1,1,0,1.6h-1.5a2.3,2.3,0,0,1,0-4.6h.8v-2.5Z"/><path class="cls-29" d="M182.76.95a12.46,12.46,0,0,0-12.4,12.4v4.8a45.84,45.84,0,0,1,12.4-1.7l3.1-6.2Z"/><path class="cls-30" d="M182.76.95v15.5a46.4,46.4,0,0,1,12.4,1.7v-4.8A12.46,12.46,0,0,0,182.76.95Z"/><path class="cls-28" d="M182.76,15.75a42.51,42.51,0,0,1,8,.7,45.68,45.68,0,0,1,7.7,2,.79.79,0,0,1-.5,1.5,37.48,37.48,0,0,0-7.5-1.9,49,49,0,0,0-7.7-.7l-.8-.8Z"/><path class="cls-40" d="M167.56,19.85a.79.79,0,1,1-.5-1.5,41.54,41.54,0,0,1,7.7-2,52.87,52.87,0,0,1,8-.7v1.5a39.4,39.4,0,0,0-7.7.7A58.88,58.88,0,0,0,167.56,19.85Z"/><g id="_Grupo_" data-name="&lt;Grupo&gt;"><polygon class="cls-1" points="50.32 73.44 50.82 73.94 51.32 74.44 51.32 76.48 51.32 76.52 20.36 76.52 20.36 76.48 20.36 73.43 35.84 73.43 50.31 73.43 50.32 73.44"/><path class="cls-41" d="M53.54,112c.32.55.63,1.11.92,1.67H52.87v-2.87C53.09,111.17,53.31,111.56,53.54,112Z"/><polygon class="cls-1" points="51.32 74.43 51.32 74.44 50.82 73.94 51.32 74.43"/><path class="cls-42" d="M57.19,64.15a14.6,14.6,0,0,1-8.7-3.09h9a10,10,0,0,1,1.39.79l.19.14.09.08.08.07a3.33,3.33,0,0,1,.93,1.27,2.67,2.67,0,0,1,.14.36.09.09,0,0,1,0,0,12,12,0,0,1-2.83.33Z"/><path class="cls-9" d="M52.75,110.54H49.66l-3.09-3.09h4.68Q51.94,109,52.75,110.54Z"/><path class="cls-42" d="M66.27,60.53a12.29,12.29,0,0,1-5.91,3.29l0,0a2.67,2.67,0,0,0-.14-.36,3.33,3.33,0,0,0-.93-1.27l-.08-.07L59.1,62l-.19-.14a10,10,0,0,0-1.39-.79L51.32,58,43.58,54.1V51.24a15.65,15.65,0,0,0,4.48-3.9l9.46,1.35V30.15A12.37,12.37,0,0,0,66.27,42a12.34,12.34,0,0,1-5.14,3.09,12.3,12.3,0,0,0,5.14,3.1,12.51,12.51,0,0,1-5.14,3.09,12.4,12.4,0,0,0,5.14,3.1,12.49,12.49,0,0,1-5.14,3.08A12.3,12.3,0,0,0,66.27,60.53Z"/><polygon class="cls-9" points="52.87 113.63 52.87 113.74 52.76 113.63 52.87 113.63"/><path class="cls-43" d="M57.19,64.15H45.13l3.1-3.09h.26A14.6,14.6,0,0,0,57.19,64.15Z"/><path class="cls-41" d="M13.4,142.24a.78.78,0,0,1-.78-.77v-2.32a.76.76,0,0,1-.77.77.77.77,0,0,1-.78-.77V73.43h7.76c.23.46.45.92.67,1.38.06.12.11.24.16.37.17.36.33.72.48,1.09a2.72,2.72,0,0,1,.11.25l.09.22L18.81,95.08v15.68c-.21.41-.44.8-.67,1.2s-.5.88-.74,1.33l-.18.34c-.53,1-1,2-1.45,3.1h3V126l.57,1.14a8.81,8.81,0,0,1,1,4.15v8.63a.78.78,0,0,1-1.55,0v-3.09a.77.77,0,1,0-1.54,0v4.64a.78.78,0,0,1-.78.77.77.77,0,0,1-.77-.76v.76a.78.78,0,0,1-1.55,0v-.77A.78.78,0,0,1,13.4,142.24Z"/><path class="cls-42" d="M59.1,62l.09.08Z"/><path class="cls-41" d="M51.34,76.76l.1-.24a2.72,2.72,0,0,1,.11-.25c.11-.29.23-.56.36-.84l.13-.28,8.57,8.56v55.44a.78.78,0,0,1-1.55,0v2.32a.77.77,0,0,1-1.54,0v.76a.77.77,0,0,1-.78.77.76.76,0,0,1-.77-.77v-.76a.78.78,0,0,1-1.55,0v-4.64a.78.78,0,1,0-1.55,0v3.09a.78.78,0,0,1-1.55,0v-8.63a8.93,8.93,0,0,1,1-4.15l.57-1.14v-9.27h3a30.08,30.08,0,0,0-1.45-3.1c-.29-.56-.6-1.12-.92-1.67-.23-.4-.45-.79-.67-1.2V95.08Z"/><polygon class="cls-44" points="52.87 116.73 18.81 116.73 18.81 113.63 52.76 113.63 52.87 113.74 52.87 116.73"/><path class="cls-41" d="M52.76,113.63H18.81v-2.87l.12-.22H49.66Z"/><path class="cls-43" d="M60.36,63.82q0,.15.09.33H57.52a12,12,0,0,0,2.83-.33Z"/><polygon class="cls-41" points="52.87 116.73 52.87 113.74 55.86 116.73 52.87 116.73"/><polygon class="cls-43" points="60.61 67.24 60.61 70.34 47.22 70.34 44.12 67.24 60.61 67.24"/><path class="cls-42" d="M60.34,63.77l0,0h0A.09.09,0,0,0,60.34,63.77Z"/><path class="cls-9" d="M60.61,67.24H44.11l-1-1,2.05-2H60.45a7,7,0,0,1,.16,1.55Z"/><path class="cls-9" d="M60.61,72.47v1H59Q59.83,73,60.61,72.47Z"/><polygon class="cls-43" points="50.82 73.94 50.32 73.44 50.32 73.43 51.32 73.43 51.32 74.43 50.82 73.94"/><path class="cls-9" d="M60.61,70.34v2.13q-.78.5-1.59,1H50.31l-3.09-3.09Z"/><path class="cls-43" d="M52.76,113.63l-3.1-3.09h3.09l.12.22v2.87Z"/><path class="cls-41" d="M55.86,116.73l-3-3v-.11h1.59a30.08,30.08,0,0,1,1.45,3.1Z"/><path class="cls-41" d="M60.61,73.43V83.71L52,75.15A.47.47,0,0,1,52.1,75a.08.08,0,0,1,0,0l.06-.14c.22-.47.44-.93.67-1.39h7.76Z"/><path class="cls-1" d="M25.78,30.13a.77.77,0,0,0,.77.77.64.64,0,0,0,.2,0,1.53,1.53,0,0,0,1.35.81,1.55,1.55,0,0,0,0-3.1,1.53,1.53,0,0,0-1.35.81.64.64,0,0,0-.2,0A.77.77,0,0,0,25.78,30.13Zm-.77,0a3.1,3.1,0,0,1,1-2.32h4.1a3.09,3.09,0,0,1,.08,4.57,2.79,2.79,0,0,1-.58.07h-3.6A3.1,3.1,0,0,1,25,30.13Z"/><path class="cls-41" d="M20.36,33.22A3.09,3.09,0,0,1,18.9,27.4a.79.79,0,0,0,.69.41h.77v.77a1.55,1.55,0,0,0,0,3.1Z"/><path class="cls-41" d="M17.4,113.29c.24-.45.48-.89.74-1.33s.46-.79.67-1.2v2.87H17.23C17.28,113.52,17.34,113.4,17.4,113.29Z"/><path class="cls-41" d="M28.1,51.24a15.48,15.48,0,0,1-7.68-12.12,21.26,21.26,0,0,0,15.21,6.47H28.1Z"/><path class="cls-45" d="M48.37,23.21a4.46,4.46,0,0,1-.52-.31Z"/><polygon class="cls-41" points="28.1 51.24 43.08 66.2 42.04 67.24 42.03 67.24 38.94 70.34 35.84 73.43 32.75 70.34 29.65 67.24 29.64 67.24 26.55 64.15 23.46 61.06 23.45 61.06 20.36 57.97 28.1 54.1 28.1 51.24"/><path class="cls-1" d="M41.26,30.13a.77.77,0,0,1,.77-.77.64.64,0,0,1,.2,0,1.47,1.47,0,0,0,0,1.48.64.64,0,0,1-.2,0A.77.77,0,0,1,41.26,30.13Z"/><path class="cls-1" d="M23.16,87.48c-.06-.56-.15-1.12-.24-1.68h2L28,88.89H23.32a.13.13,0,0,0,0-.06Q23.25,88.16,23.16,87.48Z"/><path class="cls-46" d="M39,24.91a6.94,6.94,0,0,1,7.79-1H45.13v1a5.06,5.06,0,0,0-1.55-.23A5.37,5.37,0,0,0,40,26.07Z"/><path class="cls-41" d="M51.91,75.43c-.13.28-.25.55-.36.84a2.72,2.72,0,0,0-.11.25h-.12V74.44l.71.7h0Z"/><path class="cls-41" d="M43.58,51.24V46.7l4.48.64A15.65,15.65,0,0,1,43.58,51.24Z"/><path class="cls-46" d="M29.56,42.59A2.31,2.31,0,0,1,28.88,41a.77.77,0,1,1,1.54,0,.77.77,0,0,0,.23.55.79.79,0,0,0,.55.23h9.29A.79.79,0,0,0,41,41.5a.76.76,0,0,0,.22-.55.78.78,0,0,1,1.55,0,2.31,2.31,0,0,1-.68,1.64h0a2.27,2.27,0,0,1-1.63.68H31.2A2.31,2.31,0,0,1,29.56,42.59Z"/><path class="cls-41" d="M45.13,26.26H40.49a1.61,1.61,0,0,0-.44,0l0-.24a5.37,5.37,0,0,1,3.58-1.35,5.06,5.06,0,0,1,1.55.23Z"/><path class="cls-42" d="M43.58,51.24V54.1h0A14.14,14.14,0,0,1,43,51.59C43.17,51.48,43.38,51.37,43.58,51.24Z"/><polygon class="cls-44" points="44.11 67.24 42.04 67.24 43.08 66.2 44.11 67.24"/><path class="cls-1" d="M45.13,32.45V27.81h.5a3.07,3.07,0,0,1,1,2.32,3.13,3.13,0,0,1-1,2.32h-.51Z"/><path class="cls-44" d="M12.66,73.43H11.07v-1Q11.86,73,12.66,73.43Z"/><path class="cls-44" d="M21.39,79.61c-.32-1-.67-1.93-1.05-2.87l0-.22h31l0,.24c-.38.94-.72,1.89-1,2.85Z"/><path class="cls-47" d="M51.32,27.81V27a3.12,3.12,0,0,1,1.46.36.78.78,0,0,1-.68.41Z"/><path class="cls-3" d="M27.33,30.13a.76.76,0,0,0-.58-.74,1.53,1.53,0,0,1,1.35-.81,1.55,1.55,0,0,1,0,3.1,1.53,1.53,0,0,1-1.35-.81A.76.76,0,0,0,27.33,30.13Z"/><path class="cls-41" d="M32.71,24.91a7,7,0,0,0-9.21,0l1,1.16v.19H20.36V24a15.47,15.47,0,0,1,6.22-12.38H38.92a6.2,6.2,0,0,1,6.2,6.2,6.16,6.16,0,0,0,1.82,4.37l.11.11.09.09L48.76,24h-2a6.94,6.94,0,0,0-7.79,1l1,1.16,0,.24a2.31,2.31,0,0,0-1.52,1,3.89,3.89,0,0,0-2.69-1.09,3.85,3.85,0,0,0-2.68,1.09,2.36,2.36,0,0,0-1.52-1l.05-.24Z"/><path class="cls-1" d="M19.22,37.8a19.3,19.3,0,0,1-1.69-2.34,1.51,1.51,0,0,1,1.28-.69,1.54,1.54,0,0,1,1.55,1.55A1.52,1.52,0,0,1,19.22,37.8Z"/><path class="cls-3" d="M42.23,29.39a1.53,1.53,0,0,1,1.35-.81,1.55,1.55,0,1,1,0,3.1,1.53,1.53,0,0,1-1.35-.81.76.76,0,0,0,0-1.48Z"/><path class="cls-41" d="M35.84,45.59l7.25,1a13.86,13.86,0,0,0-.28,2.83A15,15,0,0,0,43,51.59a15.41,15.41,0,0,1-14.86-.35V45.59h7.74Z"/><path class="cls-48" d="M20.36,27a3.09,3.09,0,0,1,3.1,3.09v.07a3.05,3.05,0,0,1-.89,2.09,3.85,3.85,0,0,1-.66-2.11V27.81H20.36Z"/><path class="cls-1" d="M34.18,95.08H23.36c.07-1,.1-2,.1-3.1h7.63l.66.66Z"/><path class="cls-44" d="M22.92,85.8c-.17-1-.39-2.06-.64-3.09H34.84a3,3,0,0,0-1.21.77A7.74,7.74,0,0,1,23.19,84v.06l1.7,1.7Z"/><path class="cls-45" d="M20.36,31.68a1.55,1.55,0,0,1,0-3.1Z"/><path class="cls-41" d="M19.5,74.81c-.22-.46-.44-.92-.67-1.38h1.53v3.09h-.11a2.72,2.72,0,0,0-.11-.25c-.15-.37-.31-.73-.48-1.09C19.61,75.05,19.56,74.93,19.5,74.81Z"/><path class="cls-48" d="M19.59,27.81a.79.79,0,0,1-.69-.41A3.12,3.12,0,0,1,20.36,27v.77Z"/><path class="cls-44" d="M34.19,95.08l3.09,3.09H23.05c.14-1,.25-2,.31-3.09H34.19Z"/><path class="cls-42" d="M57.52,61.06h-9l-.13-.12,3-3Z"/><path class="cls-47" d="M52.78,27.4A3.12,3.12,0,0,0,51.32,27v-.78h.78a.78.78,0,0,1,.77.78A.74.74,0,0,1,52.78,27.4Z"/><path class="cls-47" d="M45.13,26.26h5.93l.26.26V27a3.09,3.09,0,0,0-3.09,3.09V27.81h-2.6a2.54,2.54,0,0,0-.5-.36Z"/><path class="cls-41" d="M51.32,73.43h1.53c-.24.45-.46.92-.67,1.39l-.06.14a.08.08,0,0,0,0,0,.91.91,0,0,0-.07.14l-.71-.7h0Z"/><path class="cls-43" d="M28,88.89,24.9,85.8H48.77l0,.21a2.25,2.25,0,0,0-.06.36c0,.22-.07.44-.09.65a3.87,3.87,0,0,0-.06.46c0,.22-.06.44-.08.65s-.05.43-.07.64c0,0,0,.08,0,.12Z"/><polygon class="cls-44" points="50.31 73.43 35.84 73.43 38.94 70.34 47.22 70.34 50.31 73.43"/><path class="cls-47" d="M41.53,27.81a3.09,3.09,0,0,1,2-.77,3.15,3.15,0,0,1,1.55.41v.36Z"/><path class="cls-41" d="M45.64,32.45a3.13,3.13,0,0,0,1-2.32,3.07,3.07,0,0,0-1-2.32h2.6v2.32a2.33,2.33,0,0,1-2.32,2.32Z"/><path class="cls-41" d="M17.23,113.63h1.58v3.1h-3c.43-1.06.92-2.09,1.45-3.1Z"/><path class="cls-41" d="M22.57,32.29a3.07,3.07,0,0,1-2.21.93V31.68a1.55,1.55,0,0,0,1.55-1.5A3.85,3.85,0,0,0,22.57,32.29Z"/><path class="cls-45" d="M47.38,22.54l.22.18c.08.07.17.12.25.18a4.46,4.46,0,0,0,.52.31,5.44,5.44,0,0,0,1.11.47l1.84.28H48.76l-1.62-1.62h0Z"/><path class="cls-1" d="M26.55,30.13a1.44,1.44,0,0,1,.2-.74.76.76,0,0,1,0,1.48A1.44,1.44,0,0,1,26.55,30.13Z"/><polygon class="cls-48" points="35.22 27.04 35.84 26.26 35.84 27.81 35.22 27.04"/><path class="cls-46" d="M45.13,25V24h1.64a6.69,6.69,0,0,1,1.42,1l-1,1.16A5.18,5.18,0,0,0,45.13,25Z"/><path class="cls-41" d="M20.36,76.52l0,.22-.09-.22Z"/><path class="cls-43" d="M49.2,101.26H40.38l-3.1-3.09H48.63c0,.32.09.63.15.94s.15.87.24,1.29S49.13,101,49.2,101.26Z"/><path class="cls-44" d="M43.58,85.8a7.75,7.75,0,0,1-5.53-2.32,2.91,2.91,0,0,0-1.21-.77H49.41c-.07.28-.13.56-.2.85a2.52,2.52,0,0,0-.64.42A7.73,7.73,0,0,1,43.58,85.8Z"/><path class="cls-41" d="M31.2,30.13a3.07,3.07,0,0,0-1.05-2.32H31.2a.78.78,0,0,1,.77.77v1.55a2.34,2.34,0,0,1-1.74,2.25A3.1,3.1,0,0,0,31.2,30.13Z"/><path class="cls-41" d="M47.17,26.07l1-1.16a6.69,6.69,0,0,0-1.42-1h2l2.3,2.3H47.17Z"/><path class="cls-9" d="M50.07,104.36h-6.6l-3.09-3.1H49.2C49.45,102.32,49.74,103.36,50.07,104.36Z"/><polygon class="cls-1" points="29.65 67.24 32.75 70.34 11.07 70.34 11.07 67.24 29.64 67.24 29.65 67.24"/><path class="cls-9" d="M50.47,105.49c.11.3.22.6.34.9C50.69,106.09,50.57,105.79,50.47,105.49Z"/><path class="cls-45" d="M51.32,27.81h.78a.78.78,0,0,0,.68-.41,3.09,3.09,0,0,1-1.46,5.82Z"/><path class="cls-45" d="M43.08,66.2l-15-15A15.41,15.41,0,0,0,43,51.59a14.14,14.14,0,0,0,.61,2.51,14.62,14.62,0,0,0,4.78,6.84l-.12.12-3.1,3.09Z"/><path class="cls-47" d="M41.45,32.37a2.2,2.2,0,0,0,.58.08h3.1v.36a3.11,3.11,0,0,1-3.68-.44Z"/><path class="cls-41" d="M31.2,26.26H24.52v-.19a5.44,5.44,0,0,1,7.17,0l-.05.24A1.61,1.61,0,0,0,31.2,26.26Z"/><path class="cls-48" d="M20.36,27a3.12,3.12,0,0,0-1.46.36.74.74,0,0,1-.09-.36.78.78,0,0,1,.78-.78h.77Z"/><path class="cls-44" d="M35.84,73.43H12.66q-.79-.47-1.59-1V70.34H32.75Z"/><path class="cls-1" d="M40.49,30.13a3.1,3.1,0,0,1,1-2.32h3.6v2.32a1.55,1.55,0,0,0-1.55-1.55,1.53,1.53,0,0,0-1.35.81.64.64,0,0,0-.2,0,.77.77,0,0,0,0,1.54.64.64,0,0,0,.2,0,1.53,1.53,0,0,0,1.35.81,1.55,1.55,0,0,0,1.55-1.55v2.32H42a2.2,2.2,0,0,1-.58-.08A3.09,3.09,0,0,1,40.49,30.13Z"/><path class="cls-9" d="M48.63,98.17H37.28l-3.09-3.09H48.32V95a39.79,39.79,0,0,0,.46,4.13C48.72,98.8,48.67,98.49,48.63,98.17Z"/><path class="cls-41" d="M51.32,33.22a3.09,3.09,0,0,1-2.21-.93,3.83,3.83,0,0,0,.66-2.16V27.81h1.55Z"/><path class="cls-42" d="M43.58,54.1,51.32,58l-3,3h0a14.62,14.62,0,0,1-4.78-6.84Z"/><path class="cls-43" d="M35,82.65a1.86,1.86,0,0,1,.34-.06,1.52,1.52,0,0,1,.21,0h.52l.2,0,.35.07.19.06h-2Z"/><path class="cls-46" d="M23.5,24.91a7,7,0,0,1,9.21,0l-1,1.16a5.44,5.44,0,0,0-7.17,0Z"/><path class="cls-1" d="M40.38,101.26H22.48s0-.06,0-.09q.13-.56.24-1.14c0-.19.07-.37.1-.56.08-.42.15-.86.21-1.3H37.28Z"/><path class="cls-41" d="M51.44,76.52l-.1.24,0-.24Z"/><polygon class="cls-45" points="48.76 23.96 51.32 23.96 51.32 26.26 51.06 26.26 48.76 23.96"/><polygon class="cls-44" points="23.45 61.06 14.17 61.06 20.36 57.97 23.45 61.06"/><path class="cls-49" d="M20.42,39.12q-.63-.63-1.2-1.32a1.52,1.52,0,0,0,1.14-1.48v1.54C20.36,38.28,20.38,38.71,20.42,39.12Z"/><path class="cls-1" d="M17.53,35.46a19.3,19.3,0,0,0,1.69,2.34,1.4,1.4,0,0,1-.41.06,1.54,1.54,0,0,1-1.54-1.54A1.5,1.5,0,0,1,17.53,35.46Z"/><path class="cls-47" d="M45.13,32.81a3.75,3.75,0,0,0,.5-.36h.28a2.33,2.33,0,0,0,2.32-2.32,3.06,3.06,0,0,0,.88,2.16A3.87,3.87,0,0,1,45.91,34h-.78Z"/><path class="cls-41" d="M43.58,45.59V46.7l-.49-.07a7.49,7.49,0,0,1,.25-1Z"/><path class="cls-44" d="M31.09,92H23.46c0-1-.05-2-.14-3.09H28Z"/><path class="cls-1" d="M22.84,99.47c.08-.43.15-.86.21-1.3C23,98.61,22.92,99.05,22.84,99.47Z"/><path class="cls-49" d="M17.53,35.46a21.4,21.4,0,0,1-3.36-11.52,21.68,21.68,0,0,1,43.35,0v6.21A6.2,6.2,0,0,0,51.32,24l-1.84-.28a6.06,6.06,0,0,1-1.11-.47l-.52-.31-.25-.18-.22-.18-.23-.2,0,0-.07-.06-.11-.11a6.16,6.16,0,0,1-1.82-4.37,6.2,6.2,0,0,0-6.2-6.2H26.58A15.47,15.47,0,0,0,20.36,24v2.31h-.77a.78.78,0,0,0-.78.78.74.74,0,0,0,.09.36,3.09,3.09,0,0,0,1.46,5.82v3.1a1.54,1.54,0,0,0-1.55-1.55A1.51,1.51,0,0,0,17.53,35.46Z"/><path class="cls-44" d="M49.66,110.54H18.93a37.26,37.26,0,0,0,1.92-4.11c-.13.34-.27.68-.41,1H46.57Z"/><path class="cls-41" d="M25.78,32.45a2.33,2.33,0,0,1-2.32-2.25V27.81h2.59a3.11,3.11,0,0,0,0,4.64Z"/><path class="cls-41" d="M20.36,31.68v-3.1a1.55,1.55,0,0,1,1.55,1.55v.05A1.55,1.55,0,0,1,20.36,31.68Z"/><path class="cls-41" d="M52.1,75a.47.47,0,0,0-.06.15h0A.91.91,0,0,1,52.1,75Z"/><path class="cls-43" d="M51.25,107.45H46.57l-3.09-3.09h6.59l.09.26a2,2,0,0,0,.09.26c.07.21.14.41.22.61s.22.6.34.9S51.1,107.1,51.25,107.45Z"/><path class="cls-1" d="M21.86,81.16c.15.52.29,1,.42,1.55h0C22.14,82.19,22,81.67,21.86,81.16Z"/><path class="cls-1" d="M21.39,79.61H50.3l-.06.2c-.15.45-.28.9-.41,1.35s-.28,1-.4,1.47c0,0,0,.05,0,.08H36.84l-.19-.06-.35-.07-.2,0h-.52a1.52,1.52,0,0,0-.21,0,1.86,1.86,0,0,0-.34.06l-.19.06H22.28c-.13-.51-.27-1-.42-1.55s-.26-.9-.41-1.35Z"/><path class="cls-1" d="M13.32,61.5c.27-.15.56-.3.85-.44h9.29l3.09,3.09H11.24q0-.18.09-.33a2.83,2.83,0,0,1,.11-.31,2.39,2.39,0,0,1,.13-.28,3.47,3.47,0,0,1,.27-.46c.06-.09.13-.17.19-.25a3.48,3.48,0,0,1,.39-.38,2.54,2.54,0,0,1,.36-.29l.15-.1.12-.08.21-.13Z"/><path class="cls-44" d="M40.38,101.26l3.09,3.1H21.62c-.06.18-.12.36-.19.54a32.55,32.55,0,0,0,1.05-3.64Z"/><path class="cls-41" d="M35.84,45.59h7.5a7.49,7.49,0,0,0-.25,1Z"/><path class="cls-47" d="M49.11,32.29A3.09,3.09,0,0,1,51.32,27v.77H49.77v2.32A3.83,3.83,0,0,1,49.11,32.29Z"/><path class="cls-1" d="M21.45,79.81c.15.45.28.9.41,1.35C21.73,80.71,21.59,80.26,21.45,79.81Z"/><path class="cls-47" d="M45.13,27.45a2.54,2.54,0,0,1,.5.36h-.5Z"/><path class="cls-41" d="M21.91,30.13a1.55,1.55,0,0,0-1.55-1.55v-.77h1.55Z"/><path class="cls-41" d="M43.09,46.63l.49.07v4.54c-.2.13-.41.24-.62.35a15,15,0,0,1-.15-2.13A13.86,13.86,0,0,1,43.09,46.63Z"/><path class="cls-9" d="M43.58,85.8H28.1a7.72,7.72,0,0,0,5.53-2.32,3,3,0,0,1,1.21-.77h2a2.91,2.91,0,0,1,1.21.77A7.75,7.75,0,0,0,43.58,85.8Z"/><path class="cls-1" d="M25.78,30.13a.77.77,0,0,1,.77-.77.64.64,0,0,1,.2,0,1.47,1.47,0,0,0,0,1.48.64.64,0,0,1-.2,0A.77.77,0,0,1,25.78,30.13Z"/><path class="cls-41" d="M17.4,113.29c-.06.11-.12.23-.17.34h0Z"/><path class="cls-45" d="M49.48,23.68a5.44,5.44,0,0,1-1.11-.47A6.06,6.06,0,0,0,49.48,23.68Z"/><path class="cls-41" d="M52.85,73.43c-.23.46-.45.92-.67,1.39C52.39,74.35,52.61,73.88,52.85,73.43Z"/><path class="cls-1" d="M42,30.13a1.44,1.44,0,0,1,.2-.74.76.76,0,0,1,0,1.48A1.44,1.44,0,0,1,42,30.13Z"/><path class="cls-9" d="M48.36,60.94l.13.12h-.26l.12-.12Z"/><polygon class="cls-47" points="51.32 26.26 51.32 26.52 51.06 26.26 51.32 26.26"/><path class="cls-41" d="M52,75.15h0l-.13.28Z"/><path class="cls-41" d="M45.13,26.26V25a5.18,5.18,0,0,1,2,1.12v.19Z"/><path class="cls-45" d="M47.6,22.72l.25.18C47.77,22.84,47.68,22.79,47.6,22.72Z"/><path class="cls-47" d="M35.84,26.26a3.89,3.89,0,0,1,2.69,1.09,2.31,2.31,0,0,1,1.52-1,1.61,1.61,0,0,1,.44,0h4.64v1.19A3.15,3.15,0,0,0,43.58,27a3.09,3.09,0,0,0-2,.77h-1a.78.78,0,0,0-.78.77v1.55a2.33,2.33,0,0,0,1.74,2.24,3.11,3.11,0,0,0,3.68.44V34H42a3.88,3.88,0,0,1-3.87-3.87,2.32,2.32,0,0,0-2.32-2.32Z"/><path class="cls-9" d="M48.27,90.5c0,.5,0,1,0,1.48H31.09L28,88.89H48.37l-.06.8C48.29,90,48.27,90.23,48.27,90.5Z"/><path class="cls-49" d="M47.12,22.31l0,0h0Z"/><path class="cls-41" d="M34.29,32.45a2.32,2.32,0,0,0,0,4.64h1.55a.77.77,0,1,0,0-1.54H34.29a.77.77,0,0,1-.77-.78.76.76,0,0,1,.77-.77h1.55a.77.77,0,0,0,.77-.78V30.13a.77.77,0,1,0-1.54,0v2.32ZM29.56,42.59a2.31,2.31,0,0,0,1.64.68h9.29a2.27,2.27,0,0,0,1.63-.68h0A2.31,2.31,0,0,0,42.81,41a.78.78,0,0,0-1.55,0,.76.76,0,0,1-.22.55.79.79,0,0,1-.55.23H31.2a.79.79,0,0,1-.55-.23.77.77,0,0,1-.23-.55.77.77,0,1,0-1.54,0A2.31,2.31,0,0,0,29.56,42.59Zm-7-10.3A3.88,3.88,0,0,0,25.78,34h3.87a3.88,3.88,0,0,0,3.87-3.87,2.32,2.32,0,1,1,4.64,0A3.88,3.88,0,0,0,42,34h3.1v7.53a14,14,0,0,0-1.79,4.06H35.63a21.26,21.26,0,0,1-15.21-6.47c0-.41-.06-.84-.06-1.26V33.22A3.07,3.07,0,0,0,22.57,32.29Z"/><path class="cls-9" d="M24.9,85.8l-1.7-1.7V84A7.71,7.71,0,0,0,28.1,85.8Z"/><path class="cls-9" d="M48.77,85.8H43.58a7.73,7.73,0,0,0,5-1.82,2.52,2.52,0,0,1,.64-.42C49,84.31,48.9,85.05,48.77,85.8Z"/><polygon class="cls-1" points="50.32 73.43 50.32 73.44 50.31 73.43 50.32 73.43"/><path class="cls-48" d="M20.36,26.26H31.2a1.61,1.61,0,0,1,.44,0,2.36,2.36,0,0,1,1.52,1,3.85,3.85,0,0,1,2.68-1.09l-.62.78.62.77a2.32,2.32,0,0,0-2.32,2.32A3.88,3.88,0,0,1,29.65,34H25.78a3.88,3.88,0,0,1-3.21-1.71,3.05,3.05,0,0,0,.89-2.09,2.33,2.33,0,0,0,2.32,2.25h.27a3.12,3.12,0,0,0,4.18-.07A2.34,2.34,0,0,0,32,30.13V28.58a.78.78,0,0,0-.77-.77H30.15a3.11,3.11,0,0,0-4.1,0H23.46v2.32A3.09,3.09,0,0,0,20.36,27Z"/><path class="cls-41" d="M41.53,27.81a3.1,3.1,0,0,0-.08,4.56,2.33,2.33,0,0,1-1.74-2.24V28.58a.78.78,0,0,1,.78-.77Z"/><path class="cls-48" d="M30.23,32.38a3.12,3.12,0,0,1-4.18.07h3.6A2.79,2.79,0,0,0,30.23,32.38Z"/><path class="cls-41" d="M45.13,34h.78a3.87,3.87,0,0,0,3.2-1.71,3.09,3.09,0,0,0,2.21.93v4.64a15.38,15.38,0,0,1-3.26,9.48l-4.48-.64V45.59h-.24a14,14,0,0,1,1.79-4.06V34Z"/><path class="cls-47" d="M45.63,32.45a3.75,3.75,0,0,1-.5.36v-.36Z"/><polygon class="cls-1" points="42.04 67.24 44.11 67.24 44.12 67.24 47.22 70.34 38.94 70.34 42.03 67.24 42.04 67.24"/><path class="cls-43" d="M31.75,92.64,31.09,92H48.23q0,1.55.09,3v.1H34.18Z"/><path class="cls-44" d="M29.64,67.24H11.07V65.7a6.38,6.38,0,0,1,.17-1.55H26.55Z"/><path class="cls-48" d="M28.1,27a3.07,3.07,0,0,1,2,.77h-4.1A3.09,3.09,0,0,1,28.1,27Z"/><path class="cls-42" d="M51.32,26.26V24a6.2,6.2,0,0,1,6.2,6.19V48.69l-9.46-1.35a15.38,15.38,0,0,0,3.26-9.48V33.22a3.09,3.09,0,0,0,1.46-5.82.74.74,0,0,0,.09-.36.78.78,0,0,0-.77-.78Z"/><path class="cls-46" d="M32,34.77a2.32,2.32,0,0,1,2.32-2.32h.78V30.13a.77.77,0,1,1,1.54,0v3.09a.77.77,0,0,1-.77.78H34.29a.76.76,0,0,0-.77.77.77.77,0,0,0,.77.78h1.55a.77.77,0,1,1,0,1.54H34.29A2.32,2.32,0,0,1,32,34.77Z"/><path class="cls-45" d="M47.12,22.31l0,0-.09-.09Z"/><path class="cls-1" d="M46.57,107.45H20.44c.14-.34.28-.68.41-1a.09.09,0,0,0,0-.06c.12-.29.23-.58.33-.88s.15-.39.22-.59.13-.36.19-.54H43.48Z"/></g><path class="cls-1" d="M1.74,216.75h27.9v2.3a.79.79,0,0,1-.8.8H2.54a.8.8,0,0,1-.8-.8h0Z"/><path class="cls-29" d="M28.14,205.85a.79.79,0,0,1,.8.8v1.5a.6.6,0,0,1-.3.6,44.13,44.13,0,0,1,1.1,7.9H1.84a2.91,2.91,0,0,1,2.1-2.9l9.2-2a6.12,6.12,0,0,0,3.6-3.1.6.6,0,0,1-.1-.4v-1.5a.79.79,0,0,1,.8-.8h10.7Z"/><path class="cls-30" d="M28.75,209.85l.3,1.5a5.18,5.18,0,0,0-3.3,1.6,5.29,5.29,0,0,0-1.6,3.8h-1.5a7,7,0,0,1,2-4.9,7.23,7.23,0,0,1,4.1-2Zm-13.8,6.9h-1.6a2.4,2.4,0,0,0-2.3-2.3H2.74a2.38,2.38,0,0,1,1.1-.6L8,213h3a3.69,3.69,0,0,1,2.7,1.1A3.29,3.29,0,0,1,14.94,216.75Z"/><path class="cls-27" d="M69.95,216.75H42v2.3a.79.79,0,0,0,.8.8h26.3a.79.79,0,0,0,.8-.8Z"/><path class="cls-30" d="M43.54,205.85a.79.79,0,0,0-.8.8v1.5a.6.6,0,0,0,.3.6,44.13,44.13,0,0,0-1.1,7.9h27.9a2.91,2.91,0,0,0-2.1-2.9l-9.2-2a6.12,6.12,0,0,1-3.6-3.1.6.6,0,0,0,.1-.4v-1.5a.79.79,0,0,0-.8-.8H43.54Z"/><path class="cls-37" d="M42.95,209.85l-.3,1.5a5.18,5.18,0,0,1,3.3,1.6,5.29,5.29,0,0,1,1.6,3.8h1.6a7,7,0,0,0-2-4.9,7.5,7.5,0,0,0-4.2-2Zm13.8,6.9h1.6a2.4,2.4,0,0,1,2.3-2.3h8.3a2.38,2.38,0,0,0-1.1-.6l-4.2-.9h-3a3.69,3.69,0,0,0-2.7,1.1A3.61,3.61,0,0,0,56.75,216.75Z"/><path class="cls-32" d="M330.19,166.61a5.28,5.28,0,0,1-1.79.47,3.15,3.15,0,0,0,1.36-1.71,5.62,5.62,0,0,1-1.95.74,3.11,3.11,0,0,0-2.26-1,3.08,3.08,0,0,0-3,3.78,8.68,8.68,0,0,1-6.35-3.23,3.07,3.07,0,0,0,1,4.13,2.92,2.92,0,0,1-1.4-.39,3.08,3.08,0,0,0,2.49,3.08,2.82,2.82,0,0,1-1.4,0,3.12,3.12,0,0,0,2.88,2.14,6.18,6.18,0,0,1-4.56,1.29,9,9,0,0,0,4.75,1.4,8.73,8.73,0,0,0,8.77-9.19A6.31,6.31,0,0,0,330.19,166.61Z"/><path class="cls-32" d="M343.16,197.59h-8.74a3.13,3.13,0,0,0-3.13,3.13v8.74a3.13,3.13,0,0,0,3.13,3.13h8.74a3.13,3.13,0,0,0,3.13-3.13v-8.74A3.13,3.13,0,0,0,343.16,197.59ZM341.27,202h-1.19c-.38,0-.65.16-.65.54v.7h1.89l-.16,1.89h-1.73v5h-1.89v-5H336.3V203.2h1.24V202c0-1.24.65-1.94,2.16-1.94h1.56Z"/><path class="cls-32" d="M295.79,202.87v1a.29.29,0,0,1-.27.27h-1a.26.26,0,0,1-.27-.27v-1a.29.29,0,0,1,.27-.27h1A.26.26,0,0,1,295.79,202.87Zm-3.89,5a1.36,1.36,0,1,0-1.36-1.36A1.36,1.36,0,0,0,291.91,207.88Zm8-1.4a8,8,0,1,1-8-8A8,8,0,0,1,299.91,206.48Zm-3.34-1.18h-2.62a2.24,2.24,0,0,1,.32,1.22,2.4,2.4,0,0,1-4.79,0,2.27,2.27,0,0,1,.36-1.22h-2.62v4a1.89,1.89,0,0,0,1.85,1.85h5.65a1.86,1.86,0,0,0,1.85-1.85Zm-4.66,3a1.82,1.82,0,0,0,1.81-1.85,1.69,1.69,0,0,0-.63-1.36.94.94,0,0,0-.45-.27,2.13,2.13,0,0,0-.77-.18,1.49,1.49,0,0,0-.77.18,4,4,0,0,0-.45.27,1.84,1.84,0,0,0-.63,1.36A2,2,0,0,0,291.91,208.34Zm4.66-4.7a1.86,1.86,0,0,0-1.85-1.85h-4.79v1.94h-.41v-1.94h-.41v1.94h-.41v-1.9a1.32,1.32,0,0,0-.41.09v1.81h-.41v-1.58a1.82,1.82,0,0,0-.77,1.49v1.27H290a2.41,2.41,0,0,1,3.53,0h2.94A6,6,0,0,0,296.56,203.64Z"/></svg>