<svg aria-hidden="true" style="position: absolute; width: 0; height: 0; overflow: hidden;" version="1.1" xmlns="http://www.w3.org/2000/svg" xmlns:xlink="http://www.w3.org/1999/xlink">
<defs>
<symbol id="icon-arrow-up8" viewBox="0 0 16 16">
<title>arrow-up8</title>
<path d="M13.707 6.293l-5-5c-0.39-0.391-1.024-0.391-1.414 0l-5 5c-0.391 0.391-0.391 1.024 0 1.414s1.024 0.391 1.414 0l3.293-3.293v9.586c0 0.552 0.448 1 1 1s1-0.448 1-1v-9.586l3.293 3.293c0.195 0.195 0.451 0.293 0.707 0.293s0.512-0.098 0.707-0.293c0.391-0.391 0.391-1.024 0-1.414z"></path>
</symbol>
<symbol id="icon-arrow-down8" viewBox="0 0 16 16">
<title>arrow-down8</title>
<path d="M13.707 9.707l-5 5c-0.39 0.391-1.024 0.391-1.414 0l-5-5c-0.391-0.391-0.391-1.024 0-1.414s1.024-0.391 1.414 0l3.293 3.293v-9.586c0-0.552 0.448-1 1-1s1 0.448 1 1v9.586l3.293-3.293c0.195-0.195 0.451-0.293 0.707-0.293s0.512 0.098 0.707 0.293c0.391 0.391 0.391 1.024 0 1.414z"></path>
</symbol>
<symbol id="icon-facebook" viewBox="0 0 16 16">
<title>facebook</title>
<path d="M9.5 3h2.5v-3h-2.5c-1.93 0-3.5 1.57-3.5 3.5v1.5h-2v3h2v8h3v-8h2.5l0.5-3h-3v-1.5c0-0.271 0.229-0.5 0.5-0.5z"></path>
</symbol>
<symbol id="icon-instagram" viewBox="0 0 16 16">
<title>instagram</title>
<path d="M14.5 0h-13c-0.825 0-1.5 0.675-1.5 1.5v13c0 0.825 0.675 1.5 1.5 1.5h13c0.825 0 1.5-0.675 1.5-1.5v-13c0-0.825-0.675-1.5-1.5-1.5zM11 2.5c0-0.275 0.225-0.5 0.5-0.5h2c0.275 0 0.5 0.225 0.5 0.5v2c0 0.275-0.225 0.5-0.5 0.5h-2c-0.275 0-0.5-0.225-0.5-0.5v-2zM8 5c1.656 0 3 1.344 3 3s-1.344 3-3 3c-1.656 0-3-1.344-3-3s1.344-3 3-3zM14 13.5v0c0 0.275-0.225 0.5-0.5 0.5h-11c-0.275 0-0.5-0.225-0.5-0.5v0-6.5h1.1c-0.066 0.322-0.1 0.656-0.1 1 0 2.762 2.237 5 5 5s5-2.238 5-5c0-0.344-0.034-0.678-0.1-1h1.1v6.5z"></path>
</symbol>
<symbol id="icon-twitter" viewBox="0 0 16 16">
<title>twitter</title>
<path d="M16 3.538c-0.588 0.263-1.222 0.438-1.884 0.516 0.678-0.406 1.197-1.050 1.444-1.816-0.634 0.375-1.338 0.65-2.084 0.797-0.6-0.638-1.453-1.034-2.397-1.034-1.813 0-3.281 1.469-3.281 3.281 0 0.256 0.028 0.506 0.084 0.747-2.728-0.138-5.147-1.444-6.766-3.431-0.281 0.484-0.444 1.050-0.444 1.65 0 1.138 0.578 2.144 1.459 2.731-0.538-0.016-1.044-0.166-1.488-0.409 0 0.013 0 0.028 0 0.041 0 1.591 1.131 2.919 2.634 3.219-0.275 0.075-0.566 0.116-0.866 0.116-0.212 0-0.416-0.022-0.619-0.059 0.419 1.303 1.631 2.253 3.066 2.281-1.125 0.881-2.538 1.406-4.078 1.406-0.266 0-0.525-0.016-0.784-0.047 1.456 0.934 3.181 1.475 5.034 1.475 6.037 0 9.341-5.003 9.341-9.341 0-0.144-0.003-0.284-0.009-0.425 0.641-0.459 1.197-1.038 1.637-1.697z"></path>
</symbol>
<symbol id="icon-logo" viewBox="0 0 60 60">
<title>logo</title>
<path class="cls-1" d="M32.42,25.56a3.57,3.57,0,0,0,.85-2.45,3.78,3.78,0,0,0-.8-2.5,2.87,2.87,0,0,0-2.34-1h-5.5v6.86h5.55A2.84,2.84,0,0,0,32.42,25.56Z"/><path class="cls-1" d="M34.08,33.6a4.07,4.07,0,0,0-1.16-.91,3.45,3.45,0,0,0-1.64-.36H24.62v8h6.8A3.24,3.24,0,0,0,33,40,3.57,3.57,0,0,0,34.1,39a3.81,3.81,0,0,0,.68-1.32A5.21,5.21,0,0,0,35,36.26a4.73,4.73,0,0,0-.22-1.42A3.44,3.44,0,0,0,34.08,33.6Z"/><path class="cls-1" d="M30,0A30,30,0,1,0,60,30,30,30,0,0,0,30,0ZM41.66,40.3a9.52,9.52,0,0,1-2.09,3.22,9.94,9.94,0,0,1-3.34,2.21,11.42,11.42,0,0,1-4.42.82H17.62V13.46H30.86A10,10,0,0,1,38,15.94a8.79,8.79,0,0,1,2.64,6.74,7.18,7.18,0,0,1-.22,1.7,5.82,5.82,0,0,1-.74,1.73,6.66,6.66,0,0,1-1.39,1.56,7.29,7.29,0,0,1-2.16,1.2A8.56,8.56,0,0,1,39,30.14,8.47,8.47,0,0,1,40.9,32,7.61,7.61,0,0,1,42,34.25a7.26,7.26,0,0,1,.36,2.16A10.48,10.48,0,0,1,41.66,40.3Z"/>
</symbol>
<symbol id="icon-arrow_back" viewBox="0 0 32 32">
<title>arrow_back</title>
<path d="M26.688 14.688v2.625h-16.251l7.437 7.5-1.875 1.875-10.688-10.688 10.688-10.688 1.875 1.875-7.437 7.5h16.251z"></path>
</symbol>
<symbol id="icon-arrow_forward" viewBox="0 0 32 32">
<title>arrow_forward</title>
<path d="M16 5.312l10.688 10.688-10.688 10.688-1.875-1.875 7.437-7.5h-16.251v-2.625h16.251l-7.437-7.5z"></path>
</symbol>
<symbol id="icon-widgets" viewBox="0 0 32 32">
<title>widgets</title>
<path d="M22.188 2.251l7.563 7.563-7.563 7.5h5.812v10.688h-10.688v-10.688h4.875l-7.5-7.5v4.875h-10.688v-10.688h10.688v5.812zM4 28v-10.688h10.688v10.688h-10.688z"></path>
</symbol>
</defs>
</svg>
