<svg id="Capa_1" data-name="Capa 1" xmlns="http://www.w3.org/2000/svg" viewBox="0 0 16 16"><title>logo</title><circle cx="8" cy="8" r="8" style="fill:#283d73"/><path d="M10.91,5.38a1.74,1.74,0,0,1-.05.43,1.43,1.43,0,0,1-.19.43,1.65,1.65,0,0,1-.35.39,1.84,1.84,0,0,1-.54.3,2.12,2.12,0,0,1,.7.32,2.15,2.15,0,0,1,.49.47,1.94,1.94,0,0,1,.28.55,1.79,1.79,0,0,1,.09.54,2.65,2.65,0,0,1-.18,1,2.36,2.36,0,0,1-.52.8,2.5,2.5,0,0,1-.83.55,2.85,2.85,0,0,1-1.1.2H5.15V3.08H8.46a2.51,2.51,0,0,1,1.79.62A2.2,2.2,0,0,1,10.91,5.38Zm-2.62,1a.71.71,0,0,0,.56-.24.89.89,0,0,0,.21-.61,1,1,0,0,0-.2-.62.72.72,0,0,0-.58-.24H6.9V6.34ZM6.9,7.79v2H8.6A.81.81,0,0,0,9,9.71a.92.92,0,0,0,.28-.23.93.93,0,0,0,.17-.33,1.27,1.27,0,0,0,.05-.37,1.15,1.15,0,0,0-.05-.35.84.84,0,0,0-.17-.31A1,1,0,0,0,9,7.88a.86.86,0,0,0-.41-.09Z" style="fill:#fff"/></svg>