<svg id="Capa_1" data-name="Capa 1" xmlns="http://www.w3.org/2000/svg" xmlns:xlink="http://www.w3.org/1999/xlink" viewBox="0 0 371 221"><defs><style>.cls-1{fill:#fff;}.cls-2{mask:url(#mask);}.cls-3{fill:#424f54;}.cls-4{fill:#222c30;}.cls-5{fill:#fcdbbd;}.cls-6{fill:#edba8a;}.cls-7{fill:#ad7b4c;}.cls-8{fill:#de314e;}.cls-9{fill:#900;}.cls-10{fill:#ba1717;}.cls-11{fill:#5b4d45;}.cls-12{mask:url(#mask-2-2);}.cls-13{fill:#966d48;}.cls-14{mask:url(#mask-3);}.cls-15{fill:#8b6141;}.cls-16{mask:url(#mask-4);}.cls-17{mask:url(#mask-5);}.cls-18{fill:#e8b274;}.cls-19{fill:#a5c5e8;}.cls-20{fill:#799dc9;}.cls-21{fill:#402511;}.cls-22{fill:#ffcd05;}.cls-23{fill:#b8952f;}.cls-24{fill:#435055;}.cls-25{fill:#232d30;}.cls-26{fill:#414a4e;}.cls-27{fill:#e6e6e5;}.cls-28{fill:#788890;}.cls-29{fill:#ca3927;}.cls-30{fill:#991b1e;}.cls-31{fill:#da9a5b;}.cls-32{opacity:0.13;isolation:isolate;}.cls-33{fill:#e5b486;}.cls-34{fill:#f8ba2e;}.cls-35{fill:#736357;}.cls-36{fill:#374252;}.cls-37{fill:#653614;}.cls-38{fill:#c79255;}.cls-39{fill:#a87942;}.cls-40{fill:#a0b4ba;}.cls-41{fill:#c79256;}.cls-42{fill:#ffd6cc;}.cls-43{fill:#f8c0b2;}.cls-44{fill:#c30;}.cls-45{fill:#e6e6e6;}.cls-46{fill:#fc0;}.cls-47{fill:#ba9400;}.cls-48{fill:#b08c82;}.cls-49{fill:#422100;}.cls-50{fill:#630;}</style><mask id="mask" x="54.76" y="-8.76" width="100" height="100" maskUnits="userSpaceOnUse"><g id="mask-2"><circle id="path-1" class="cls-1" cx="104.76" cy="41.24" r="50"/></g></mask><mask id="mask-2-2" x="0.34" y="0.14" width="336.44" height="32.49" maskUnits="userSpaceOnUse"><g id="s"><path class="cls-1" d="M8.6.14l3.4,5L7.4,9.36.34,8.42c0,.14,3.32-5.16,8.27-8.28Z"/></g></mask><mask id="mask-3" x="0.08" y="0.13" width="336.62" height="29.51" maskUnits="userSpaceOnUse"><g id="t"><path class="cls-1" d="M3.52,6.18l1-.95L1.14.13.08,6.46Z"/></g></mask><mask id="mask-4" x="0.34" y="0.54" width="368.62" height="49.26" maskUnits="userSpaceOnUse"><g id="u"><path class="cls-1" d="M6.37.54.34,1.7.6,8l5.57,4.36A28.16,28.16,0,0,0,6.37.54Z"/></g></mask><mask id="mask-5" x="0.4" y="0.54" width="368.02" height="42.62" maskUnits="userSpaceOnUse"><g id="v"><path class="cls-1" d="M.4,3.12V1.7l6-1.16L2.7,5.7Z"/></g></mask></defs><title>buho_hero</title><g id="Page-1"><g id="Avatar4"><g class="cls-2"><g id="Group-6-Copy"><path id="Fill-591" class="cls-3" d="M85.76,59.14V19.88a19,19,0,1,1,38,0V59.14Z"/><path id="Fill-592" class="cls-4" d="M104.75.82h0a19,19,0,0,1,19,19.06V59.14h-19Z"/><path id="Fill-593" class="cls-5" d="M96.84,42.13h15.83V54.84l7.91,1.76,2.37.53a19,19,0,0,1-18.19,13.59h0A19,19,0,0,1,86.55,57.13l3.1-.69,7.18-1.6Z"/><path id="Fill-594" class="cls-6" d="M112.66,45.42v9.42L123,57.13a19.1,19.1,0,0,1-7.49,10.27L96.84,48.71V45.42Z"/><path id="Fill-595" class="cls-6" d="M120.58,23.06a3.18,3.18,0,1,0,3.17,3.18,3.17,3.17,0,0,0-3.17-3.18"/><path id="Fill-596" class="cls-7" d="M120.58,24.65a1.59,1.59,0,1,0,1.58,1.59,1.59,1.59,0,0,0-1.58-1.59"/><path id="Fill-597" class="cls-5" d="M88.92,23.06a3.18,3.18,0,1,0,3.17,3.18,3.17,3.17,0,0,0-3.17-3.18"/><path id="Fill-598" class="cls-7" d="M88.92,24.65a1.59,1.59,0,1,0,1.58,1.59,1.59,1.59,0,0,0-1.58-1.59"/><path id="Fill-599" class="cls-5" d="M120.58,19.88v14.3a15.83,15.83,0,1,1-31.66,0V19.88h31.66Z"/><path id="Fill-600" class="cls-6" d="M120.58,19.88v14.3a15.89,15.89,0,0,1-5.47,12L88.92,19.88h31.66Z"/><path id="Fill-601" class="cls-4" d="M107.82,41.33a6.36,6.36,0,0,0,3.27-5.56H98.42a6.36,6.36,0,0,0,3.27,5.56Z"/><path id="Fill-602" class="cls-8" d="M104.75,42.13a6.29,6.29,0,0,0,3.07-.79,6.32,6.32,0,0,0-6.13,0,6.29,6.29,0,0,0,3.07.79"/><path id="Fill-603" class="cls-1" d="M109.5,35.77a1.59,1.59,0,0,1-1.58,1.59h-6.33A1.59,1.59,0,0,1,100,35.77Z"/><path id="Fill-604" class="cls-9" d="M104.75,23.86l-.79-.79.79-.79a3.94,3.94,0,0,1,3.17,1.59,4,4,0,0,1,3.16-1.59h10.29a.79.79,0,0,1,0,1.58H119v2.39a5.94,5.94,0,1,1-11.87,0,2.38,2.38,0,0,0-2.38-2.38Zm6.33,0a2.39,2.39,0,0,0-2.37,2.38,4.35,4.35,0,1,0,8.71,0V23.86Z"/><path id="Fill-605" class="cls-4" d="M93.78,27.28A.79.79,0,0,1,92.91,26,5.51,5.51,0,0,1,99,26a.79.79,0,0,1-.87,1.32,4,4,0,0,0-4.38,0"/><path id="Fill-606" class="cls-4" d="M111.34,27.28a.79.79,0,0,1-.87-1.32,5.51,5.51,0,0,1,6.12,0,.79.79,0,0,1-.87,1.32,4,4,0,0,0-4.38,0"/><path id="Fill-612" class="cls-10" d="M98.42,23.86H92.09v2.38a4.35,4.35,0,1,0,8.71,0,2.39,2.39,0,0,0-2.37-2.38Zm6.33,0a2.38,2.38,0,0,0-2.37,2.38,5.94,5.94,0,1,1-11.87,0V23.85H88.13a.79.79,0,0,1,0-1.58H98.42a4,4,0,0,1,3.16,1.59,4,4,0,0,1,3.17-1.59Z"/><path id="Fill-613" class="cls-7" d="M104,26.24a.79.79,0,1,1,1.58,0v3.18a.79.79,0,0,1-.79.79h-1.58a.8.8,0,0,0,0,1.59h1.58a.79.79,0,0,1,0,1.58h-1.58a2.38,2.38,0,0,1,0-4.77H104Z"/></g></g></g></g><path class="cls-11" d="M293.56,49.54c8.33,7.62,9,19.24,2.29,25.25s-16.13,2-21.09-3c-13.06-13.11-18-40.68-13.93-46.85C271.41,30.66,284.61,41.3,293.56,49.54Z"/><g class="cls-12"><path class="cls-13" d="M321.4,19.6h15.38v13H321.4Z"/></g><g class="cls-14"><path class="cls-15" d="M328.5,19.6h8.2v10h-8.2Z"/></g><g class="cls-16"><path class="cls-13" d="M358.66,34.26H369V49.8h-10.3Z"/></g><g class="cls-17"><path class="cls-15" d="M358.66,34.26h9.76v8.9h-9.76Z"/></g><path class="cls-18" d="M266,27.25l.6-.5a.78.78,0,1,0-1-1.2l-.6.5a.78.78,0,1,0-1-1.2l-1.8,1.5a.78.78,0,1,0-1-1.2L225.66,56l-21.8,7.5,3.2,9.2,22.7-8,38-32.9a.79.79,0,0,0,.1-1.1.78.78,0,0,0-1.1-.1l-2.3,2a.78.78,0,1,1-1-1.2l3.5-3a.79.79,0,0,0,.1-1.1A.89.89,0,0,0,266,27.25Z"/><path class="cls-18" d="M173.26,43.85h18.6v21.7h-18.6"/><path class="cls-19" d="M164.06,118.25h37.2v33.5l-17-16.4a1.54,1.54,0,0,0-1.5-1.5,1.47,1.47,0,0,0-1.5,1.5l-6.2,72.8h-10.8v-89.9Z"/><path class="cls-20" d="M201.16,151.75v56.4h-10.8l-6.2-72.8a1.53,1.53,0,0,0-.4-1Z"/><path class="cls-19" d="M17.19,116.73h37.2v33.5l-17-16.4a1.54,1.54,0,0,0-1.5-1.5,1.47,1.47,0,0,0-1.5,1.5l-6.2,72.8H17.38v-89.9Z"/><path class="cls-20" d="M54.29,150.23v56.4H43.49l-6.2-72.8a1.53,1.53,0,0,0-.4-1Z"/><path class="cls-21" d="M191.86,118.25h9.3v9.3"/><path class="cls-18" d="M164.06,144.55a.79.79,0,0,1-.8.8.8.8,0,0,1-.8-.8h0v-3a.8.8,0,0,0-1.6,0v4.6a.79.79,0,0,1-.8.8.8.8,0,0,1-.8-.8h0v.8a.79.79,0,0,1-.8.8.8.8,0,0,1-.8-.8h0v-.8a.79.79,0,0,1-.8.8.8.8,0,0,1-.8-.8h0v-2.3a.79.79,0,0,1-.8.8.8.8,0,0,1-.8-.8h0V84.15h9.3v60.4h.3Z"/><path class="cls-1" d="M148.56,217.45h27.9v2.3a.79.79,0,0,1-.8.8h-26.3a.8.8,0,0,1-.8-.8h0v-2.3Z"/><path class="cls-22" d="M174.86,207.35a.79.79,0,0,1,.8.8v.8a.6.6,0,0,1-.3.6,44.13,44.13,0,0,1,1.1,7.9h-27.9a2.91,2.91,0,0,1,2.1-2.9l9.2-2a6.12,6.12,0,0,0,3.6-3.1.6.6,0,0,1-.1-.4v-.8a.79.79,0,0,1,.8-.8h10.7v-.1Z"/><path class="cls-23" d="M154,213.75l1.6-.3v.9a.79.79,0,0,1-.8.8.8.8,0,0,1-.8-.8h0v-.6Zm3.1-.7,1.5-.3.4,1.4a.73.73,0,1,1-1.4.4l-.5-1.5Zm3.1-.7a9.14,9.14,0,0,0,1.4-.7l.8,1.4a.81.81,0,1,1-1.4.8l-.8-1.5Zm2.3-1.6c.3-.4.6-.9.9-1.3l1.2,1.2a.78.78,0,0,1-1.1,1.1l-1-1Z"/><path class="cls-24" d="M154.76,126.05h4.6v3.1h-4.6"/><path class="cls-25" d="M164.06,126.05h-4.7v3.1h4.7"/><path class="cls-22" d="M154.76,84.15V65.55c0-3.1,1.6-3.9,3.1-4.6l15.5-7.7a9.3,9.3,0,0,0,18.6,0l25.5,6.7c1.5.8,3.1,8.7,3.1,8.7l-19.3,15.5v43.4h-37.2V84.15h-9.3Z"/><path class="cls-23" d="M201.16,90.35v31l-27.9-27.9,18.6-12.4"/><path class="cls-26" d="M171.76,54l1.6-.8v31l-1.6-3.1Zm20.1,21.7,1.5.8v4.7l-1.5,3.1Z"/><path class="cls-25" d="M191.86,53.25v-.1l1.6.8v23.2l-1.6-1.5"/><path class="cls-24" d="M157.86,124.45H161a1.56,1.56,0,0,1,1.6,1.5v3.1a1.5,1.5,0,0,1-1.6,1.5h-3.1a1.47,1.47,0,0,1-1.5-1.5V126A1.42,1.42,0,0,1,157.86,124.45Z"/><path class="cls-1" d="M157.86,126.05H161v3.1h-3.1"/><path class="cls-20" d="M173.26,130.65a10.12,10.12,0,0,1-3.5,4.4,9.53,9.53,0,0,1-5.8,1.8v-1.5a8.44,8.44,0,0,0,4.9-1.6,10.09,10.09,0,0,0,2.7-3.1h1.7Zm18.6,0a10.12,10.12,0,0,0,3.5,4.4,9.53,9.53,0,0,0,5.8,1.8v-1.5a8.44,8.44,0,0,1-4.9-1.6,10.09,10.09,0,0,1-2.7-3.1h-1.7Z"/><path class="cls-27" d="M216.66,217.45h-27.9v2.3a.79.79,0,0,0,.8.8h26.3a.79.79,0,0,0,.8-.8v-2.3Z"/><path class="cls-23" d="M190.36,207.35a.79.79,0,0,0-.8.8v.8a.6.6,0,0,0,.3.6,44.13,44.13,0,0,0-1.1,7.9h27.9a2.91,2.91,0,0,0-2.1-2.9l-9.2-2a6.12,6.12,0,0,1-3.6-3.1.6.6,0,0,0,.1-.4v-.8a.79.79,0,0,0-.8-.8h-10.7Z"/><path class="cls-22" d="M211.26,213.75l-1.5-.3v.9a.8.8,0,1,0,1.6,0v-.6h-.1Zm-3.1-.7-1.5-.3-.4,1.4a.73.73,0,1,0,1.4.4l.5-1.5Zm-3.2-.7a9.14,9.14,0,0,1-1.4-.7l-.8,1.4a.81.81,0,0,0,1.4.8l.8-1.5Zm-2.2-1.6c-.3-.4-.6-.9-.9-1.3l-1.2,1.2a.78.78,0,1,0,1.1,1.1l1-1Z"/><path class="cls-26" d="M173.26,82.65h18.6v10.8h-18.6"/><path class="cls-1" d="M173.26,81.05h18.6v3.1h-18.6"/><path class="cls-28" d="M182.56,82.65a4.67,4.67,0,0,1,4.7,4.6,4.65,4.65,0,1,1-4.7-4.6Z"/><path class="cls-25" d="M182.56,84.55a2.7,2.7,0,1,1-2.7,2.7A2.69,2.69,0,0,1,182.56,84.55Zm7-2.7h1.6v1.5h-1.6"/><path class="cls-5" d="M103.25,140v75.9h-7.7l-1.5-3.1a1.4,1.4,0,0,0,1.5-1.6l-10.2-71.3h17.9v.1Z"/><path class="cls-6" d="M103.25,140v26.6l-16.5-16.4L85.35,140m39,0-10.2,71.3a1.56,1.56,0,0,0,1.5,1.6l-1.5,3.1h-7.7V139.1l17.9.9Z"/><path class="cls-19" d="M129.65,139H80.05V63.1c0-3.1,1.6-3.9,3.1-4.6l13.9-7a7.7,7.7,0,1,0,15.4,0l13.9,7c1.5.8,3.1,1.5,3.1,4.6V139Zm-9.3-65.1a40.45,40.45,0,0,0-3.1,15.5,40,40,0,0,0,3.1,15.7Zm-31,31a40.3,40.3,0,0,0,0-31Z"/><path class="cls-20" d="M118.55,54.5l7.9,4c1.5.8,3.1,1.5,3.1,4.6v24l-9.3-9.3V73.9c-.4,1-.7,1.9-1,2.9l-11.5-11.5Z"/><path class="cls-20" d="M120.35,109.7,92.15,81.5v-.1a7.7,7.7,0,0,0,10.4-.5,3.1,3.1,0,0,1,2.2-.9,2.94,2.94,0,0,1,2.2.9,7.88,7.88,0,0,0,5.5,2.3,8,8,0,0,0,5-1.8c.1-.1.3-.2.5-.4a38,38,0,0,0-.9,8.4,40,40,0,0,0,3.1,15.7C120.35,67.6,120.35,83,120.35,109.7Z"/><path class="cls-1" d="M86.35,56.8l10.7-5.4a7.7,7.7,0,0,0,7.7,7.7,9.32,9.32,0,0,1-18.6-.8c.1-.4.1-.9.2-1.5Z"/><path class="cls-27" d="M123.25,56.8l-10.6-5.4a7.73,7.73,0,0,1-7.8,7.7,9.32,9.32,0,0,0,18.6-.8C123.35,57.9,123.35,57.4,123.25,56.8Z"/><path class="cls-1" d="M104.85,64.6a1.56,1.56,0,0,1,1.6,1.5,1.5,1.5,0,0,1-1.6,1.5,1.47,1.47,0,0,1-1.5-1.5A1.42,1.42,0,0,1,104.85,64.6Z"/><path class="cls-27" d="M106,65.1a1.61,1.61,0,0,1,.5,1.1,1.5,1.5,0,0,1-1.6,1.5,1.61,1.61,0,0,1-1.1-.5Z"/><path class="cls-1" d="M104.85,70.8a1.56,1.56,0,0,1,1.6,1.5,1.5,1.5,0,0,1-1.6,1.5,1.47,1.47,0,0,1-1.5-1.5A1.42,1.42,0,0,1,104.85,70.8Z"/><path class="cls-27" d="M106,71.3a1.61,1.61,0,0,1,.5,1.1,1.5,1.5,0,0,1-1.6,1.5,1.61,1.61,0,0,1-1.1-.5Z"/><path class="cls-1" d="M87.75,123.5h-7.7v-6.2h7.7m41.9,6.2h-7.8v-6.2h7.8M104.85,77a1.56,1.56,0,0,1,1.6,1.5,1.5,1.5,0,0,1-1.6,1.5,1.47,1.47,0,0,1-1.5-1.5A1.42,1.42,0,0,1,104.85,77Z"/><path class="cls-27" d="M106,77.5a1.61,1.61,0,0,1,.5,1.1,1.5,1.5,0,0,1-1.6,1.5,1.61,1.61,0,0,1-1.1-.5Z"/><path class="cls-1" d="M104.85,83.2a1.56,1.56,0,0,1,1.6,1.5,1.5,1.5,0,0,1-1.6,1.5,1.47,1.47,0,0,1-1.5-1.5A1.42,1.42,0,0,1,104.85,83.2Z"/><path class="cls-27" d="M106,83.7a1.61,1.61,0,0,1,.5,1.1,1.5,1.5,0,0,1-1.6,1.5,1.61,1.61,0,0,1-1.1-.5Z"/><path class="cls-1" d="M104.85,217.5H81.65v1.6a1.47,1.47,0,0,0,1.5,1.5h20.1a1.47,1.47,0,0,0,1.5-1.5v-1.6Z"/><path class="cls-29" d="M81.55,217.5a3.21,3.21,0,0,1,2.3-3l10.8-3a5.44,5.44,0,0,0,4.8,2.9,5.64,5.64,0,0,0,3.8-1.5.73.73,0,0,1,.6-.2c.2.1.4.2.4.4a15.6,15.6,0,0,1,.6,4.4H81.55Z"/><path class="cls-27" d="M104.85,217.5h23.2v1.6a1.47,1.47,0,0,1-1.5,1.5h-20.1a1.56,1.56,0,0,1-1.6-1.5Z"/><path class="cls-30" d="M128.05,217.5a3.21,3.21,0,0,0-2.3-3l-10.8-3a5.44,5.44,0,0,1-4.8,2.9,5.64,5.64,0,0,1-3.8-1.5.73.73,0,0,0-.6-.2c-.2.1-.4.2-.4.4a15.6,15.6,0,0,0-.6,4.4h23.3Z"/><path class="cls-1" d="M83.15,145.2a3.12,3.12,0,0,0,3.1-3.1,3.1,3.1,0,1,0,6.2,0,3.1,3.1,0,1,0,6.2,0,3.1,3.1,0,1,0,6.2,0,3.1,3.1,0,1,0,6.2,0,3.12,3.12,0,0,0,3.1,3.1,3.22,3.22,0,0,0,3.1-2.6,3,3,0,0,0,3.1,2.6,3.12,3.12,0,0,0,3.1-3.1h.1a3.1,3.1,0,1,0,6.2,0V139H80.15v3.1A3,3,0,0,0,83.15,145.2Z"/><path class="cls-5" d="M120.35,137.5a.8.8,0,0,0,1.6,0v-3.1a.8.8,0,1,1,1.6,0V139a.8.8,0,0,0,1.6,0v.8a.8.8,0,1,0,1.6,0V139a.8.8,0,0,0,1.6,0v-2.3a.8.8,0,1,0,1.6,0V123.5h-7.7l-.6,1.1a8.68,8.68,0,0,0-1,4.2v8.7h-.3Zm-31,0a.79.79,0,0,1-.8.8.8.8,0,0,1-.8-.8h0v-3.1a.8.8,0,1,0-1.6,0V139a.79.79,0,0,1-.8.8.8.8,0,0,1-.8-.8h0v.8a.79.79,0,0,1-.8.8.8.8,0,0,1-.8-.8h0V139a.79.79,0,0,1-.8.8.8.8,0,0,1-.8-.8h0v-2.3a.79.79,0,0,1-.8.8.8.8,0,0,1-.8-.8h0V123.5h7.7l.6,1.1a8.68,8.68,0,0,1,1,4.2v8.7Z"/><path class="cls-31" d="M268,220.1h46.2V185.6H268"/><path class="cls-32" d="M314.2,202.86,296.87,220.1h17.32"/><path class="cls-33" d="M285.6,194.23h11v-8.62h-11"/><path class="cls-31" d="M297.8,184.5H344V150H297.8"/><path class="cls-32" d="M344,167.25,326.67,184.5H344"/><path class="cls-33" d="M315.4,158.62h11V150h-11"/><path class="cls-31" d="M315.7,220.1h46.18V185.6h-46.2"/><path class="cls-32" d="M361.88,202.86,344.56,220.1h17.32"/><path class="cls-33" d="M333.3,194.23h11v-8.62h-11"/><path class="cls-34" d="M315.22,150.28h-7.58a1.42,1.42,0,0,1,0-2.85h6.5l5.27-19.51a1.41,1.41,0,0,1,2.73.73l-5.54,20.55A1.47,1.47,0,0,1,315.22,150.28Z"/><path class="cls-34" d="M331.69,150.28h-7.58a1.42,1.42,0,0,1,0-2.85h6.5l3.69-14.35a1.41,1.41,0,1,1,2.73.73l-4,15.39A1.4,1.4,0,0,1,331.69,150.28Z"/><path class="cls-35" d="M345.24,72.83a26.66,26.66,0,1,0-53.33,0c0,39.4,20.16,70.84,55.33,70.84,0,0-2-24.74-2-38.4V72.83Z"/><path class="cls-1" d="M329.46,62.75a8.87,8.87,0,0,0-8.89,8.89v11.2h-4V71.63a8.89,8.89,0,0,0-17.78,0v1.19a19.8,19.8,0,0,0,39.59,0V71.63A8.87,8.87,0,0,0,329.46,62.75Z"/><path class="cls-34" d="M320.57,82.83c0,1.62-2,4.16-2,4.16s-2-2.54-2-4.16Z"/><path class="cls-36" d="M328.27,78a2.84,2.84,0,0,0,2.85-2.69V72a2.85,2.85,0,0,0-5.69,0v3.27A2.81,2.81,0,0,0,328.27,78Z"/><path class="cls-36" d="M308.87,78a2.8,2.8,0,0,1-2.81-2.69V72a2.8,2.8,0,0,1,2.81-2.69A2.86,2.86,0,0,1,311.72,72v3.27A2.84,2.84,0,0,1,308.87,78Z"/><path class="cls-11" d="M361.28,101.84c-2.42-11-12.12-17.43-20.7-14.66s-9.85,12.93-8,19.74c4.81,17.89,26.13,36,33.55,35.55C366.48,130.47,363.9,113.69,361.28,101.84Z"/><path class="cls-37" d="M167.26,25.75a3.12,3.12,0,0,1-3.1-3.1,3.12,3.12,0,0,0,3.1-3.1h3.1v9.3a3.1,3.1,0,0,1-6.2,0A3.05,3.05,0,0,0,167.26,25.75Z"/><path class="cls-21" d="M198.26,25.75a3.12,3.12,0,0,0,3.1-3.1,3.12,3.12,0,0,1-3.1-3.1h-3.1v9.3a3.1,3.1,0,1,0,6.2,0A3.05,3.05,0,0,1,198.26,25.75Z"/><path class="cls-38" d="M198.26,22.65a3.1,3.1,0,1,0,3.1,3.1A3.12,3.12,0,0,0,198.26,22.65Z"/><path class="cls-39" d="M198.26,24.25a1.5,1.5,0,0,0,0,3,1.56,1.56,0,0,0,1.6-1.5A1.63,1.63,0,0,0,198.26,24.25Z"/><path class="cls-18" d="M167.26,22.65a3.1,3.1,0,1,0,3.1,3.1A3.12,3.12,0,0,0,167.26,22.65Z"/><path class="cls-38" d="M167.26,24.25a1.5,1.5,0,0,0,0,3,1.5,1.5,0,1,0,0-3Z"/><path class="cls-18" d="M182.76,4c8.5,0,14.7,7,14.7,15.5V35c0,8.5-6.2,15.5-14.7,15.5s-14.7-7-14.7-15.5V19.55C168.06,11,174.26,4,182.76,4Z"/><path class="cls-38" d="M182.76,4c8.5,0,14.7,7,14.7,15.5V35a15.88,15.88,0,0,1-4,10.7L168,20.25v-.8C168.06,11,174.26,4,182.76,4Z"/><path class="cls-1" d="M175.06,22.65a3.1,3.1,0,1,1-3.1,3.1A3.05,3.05,0,0,1,175.06,22.65Z"/><path class="cls-27" d="M190.56,22.65a3.1,3.1,0,1,1-3.1,3.1A3.05,3.05,0,0,1,190.56,22.65Z"/><path class="cls-26" d="M175.06,24.25a1.56,1.56,0,0,1,1.6,1.5,1.5,1.5,0,0,1-1.6,1.5,1.5,1.5,0,1,1,0-3Z"/><path class="cls-37" d="M167.26,18h1.6v13.9A3.12,3.12,0,0,0,172,35a10.8,10.8,0,0,0,19.1,6.9l7.3,7.3a2.84,2.84,0,0,1-2.1,1.2,3.1,3.1,0,0,1-3.8,1.4,3.16,3.16,0,0,1-2.8,1.7,2.82,2.82,0,0,1-1.5-.4,2.66,2.66,0,0,1-2.4,1.1h-6.2a3,3,0,0,1-2.4-1.1,3.31,3.31,0,0,1-1.5.4,3.16,3.16,0,0,1-2.8-1.7,3.59,3.59,0,0,1-1.1.2,2.92,2.92,0,0,1-2.7-1.6,3.13,3.13,0,0,1-2.7-3.1,3,3,0,0,0,2.8-1.8,2.77,2.77,0,0,1-1.3.3,3.12,3.12,0,0,1-3.1-3.1,2.92,2.92,0,0,0,2.7-1.6h-.4a3.12,3.12,0,0,1-3.1-3.1,3.31,3.31,0,0,0,1.5-.4A3,3,0,0,1,164,35a3.31,3.31,0,0,0,1.5-.4,3,3,0,0,1-1.5-2.7,3.12,3.12,0,0,0,3.1-3.1V18Z"/><path class="cls-21" d="M190.46,42.75a10.81,10.81,0,0,0,3.2-7.7,3.12,3.12,0,0,0,3.1-3.1V18h1.5v10.9a3.12,3.12,0,0,0,3.1,3.1,3.15,3.15,0,0,1-1.6,2.7,2.93,2.93,0,0,0,1.6.4,3.15,3.15,0,0,1-1.6,2.7,2.93,2.93,0,0,0,1.6.4,3.12,3.12,0,0,1-3.1,3.1h-.4a3.11,3.11,0,0,0,2.7,1.6,3.12,3.12,0,0,1-3.1,3.1,2.77,2.77,0,0,1-1.3-.3,3.08,3.08,0,0,0,2.8,1.8,3,3,0,0,1-1.3,2.5Z"/><path class="cls-26" d="M190.56,24.25a1.5,1.5,0,0,1,0,3,1.5,1.5,0,1,1,0-3Z"/><path class="cls-1" d="M173.46,25a.8.8,0,1,1-.8.8A.79.79,0,0,1,173.46,25Zm24.8-5.9v-5.7A12.46,12.46,0,0,0,185.86,1h-6.2a12.46,12.46,0,0,0-12.4,12.4v5.7a47.5,47.5,0,0,1,31,0Z"/><path class="cls-27" d="M198.26,19.15v-5.7A12.46,12.46,0,0,0,185.86,1h-3.1v15.5A44.27,44.27,0,0,1,198.26,19.15Z"/><path class="cls-1" d="M189,25a.8.8,0,1,1-.8.8A.79.79,0,0,1,189,25Z"/><path class="cls-37" d="M175,35h1.6a1.47,1.47,0,0,0,1.5-1.5,1.61,1.61,0,0,1,1.5-1.5l4.6,1.5v3.1a2.45,2.45,0,0,1-1.6-.6,2.2,2.2,0,0,1-1.5.6h-6.2a2.4,2.4,0,0,1-2.3-2.3.8.8,0,0,1,1.6,0A.85.85,0,0,0,175,35Z"/><path class="cls-21" d="M179.66,31.95h6.2a1.61,1.61,0,0,1,1.5,1.5,1.47,1.47,0,0,0,1.5,1.5h1.6a.79.79,0,0,0,.8-.8.8.8,0,0,1,1.6,0,2.26,2.26,0,0,1-2.3,2.3h-6.2Zm-.6-9.8a.78.78,0,0,1-1.2,1,3.93,3.93,0,0,0-2.9-1.3,4.11,4.11,0,0,0-2.9,1.3.91.91,0,0,1-1.1.1.9.9,0,0,1-.1-1.1,5.18,5.18,0,0,1,4-1.8A6,6,0,0,1,179.06,22.15Zm15.5,0a.78.78,0,1,1-1.2,1,3.93,3.93,0,0,0-2.9-1.3,4.11,4.11,0,0,0-2.9,1.3.91.91,0,0,1-1.1.1.9.9,0,0,1-.1-1.1,5.18,5.18,0,0,1,4-1.8A5.64,5.64,0,0,1,194.56,22.15Z"/><path class="cls-18" d="M181.26,28.85a1.5,1.5,0,0,0-1.5,1.6,1.47,1.47,0,0,0,1.5,1.5h4.6l-3.1-3.1Z"/><path class="cls-39" d="M182,25.75a.79.79,0,0,1,.8-.8.74.74,0,0,1,.8.8v3.1a.79.79,0,0,1-.8.8h-1.5a.8.8,0,0,0,0,1.6h1.5a.8.8,0,1,1,0,1.6h-1.5a2.3,2.3,0,0,1,0-4.6h.8v-2.5Z"/><path class="cls-29" d="M182.76.95a12.46,12.46,0,0,0-12.4,12.4v4.8a45.84,45.84,0,0,1,12.4-1.7l3.1-6.2Z"/><path class="cls-30" d="M182.76.95v15.5a46.4,46.4,0,0,1,12.4,1.7v-4.8A12.46,12.46,0,0,0,182.76.95Z"/><path class="cls-28" d="M182.76,15.75a42.51,42.51,0,0,1,8,.7,45.68,45.68,0,0,1,7.7,2,.79.79,0,0,1-.5,1.5,37.48,37.48,0,0,0-7.5-1.9,49,49,0,0,0-7.7-.7l-.8-.8Z"/><path class="cls-40" d="M167.56,19.85a.79.79,0,1,1-.5-1.5,41.54,41.54,0,0,1,7.7-2,52.87,52.87,0,0,1,8-.7v1.5a39.4,39.4,0,0,0-7.7.7A58.88,58.88,0,0,0,167.56,19.85Z"/><path class="cls-1" d="M1.74,216.75h27.9v2.3a.79.79,0,0,1-.8.8H2.54a.8.8,0,0,1-.8-.8h0Z"/><path class="cls-29" d="M28.14,205.85a.79.79,0,0,1,.8.8v1.5a.6.6,0,0,1-.3.6,44.13,44.13,0,0,1,1.1,7.9H1.84a2.91,2.91,0,0,1,2.1-2.9l9.2-2a6.12,6.12,0,0,0,3.6-3.1.6.6,0,0,1-.1-.4v-1.5a.79.79,0,0,1,.8-.8h10.7Z"/><path class="cls-30" d="M28.75,209.85l.3,1.5a5.18,5.18,0,0,0-3.3,1.6,5.29,5.29,0,0,0-1.6,3.8h-1.5a7,7,0,0,1,2-4.9,7.23,7.23,0,0,1,4.1-2Zm-13.8,6.9h-1.6a2.4,2.4,0,0,0-2.3-2.3H2.74a2.38,2.38,0,0,1,1.1-.6L8,213h3a3.69,3.69,0,0,1,2.7,1.1A3.29,3.29,0,0,1,14.94,216.75Z"/><path class="cls-27" d="M69.95,216.75H42v2.3a.79.79,0,0,0,.8.8h26.3a.79.79,0,0,0,.8-.8Z"/><path class="cls-30" d="M43.54,205.85a.79.79,0,0,0-.8.8v1.5a.6.6,0,0,0,.3.6,44.13,44.13,0,0,0-1.1,7.9h27.9a2.91,2.91,0,0,0-2.1-2.9l-9.2-2a6.12,6.12,0,0,1-3.6-3.1.6.6,0,0,0,.1-.4v-1.5a.79.79,0,0,0-.8-.8H43.54Z"/><path class="cls-37" d="M42.95,209.85l-.3,1.5a5.18,5.18,0,0,1,3.3,1.6,5.29,5.29,0,0,1,1.6,3.8h1.6a7,7,0,0,0-2-4.9,7.5,7.5,0,0,0-4.2-2Zm13.8,6.9h1.6a2.4,2.4,0,0,1,2.3-2.3h8.3a2.38,2.38,0,0,0-1.1-.6l-4.2-.9h-3a3.69,3.69,0,0,0-2.7,1.1A3.61,3.61,0,0,0,56.75,216.75Z"/><path class="cls-32" d="M330.19,166.61a5.28,5.28,0,0,1-1.79.47,3.15,3.15,0,0,0,1.36-1.71,5.62,5.62,0,0,1-1.95.74,3.11,3.11,0,0,0-2.26-1,3.08,3.08,0,0,0-3,3.78,8.68,8.68,0,0,1-6.35-3.23,3.07,3.07,0,0,0,1,4.13,2.92,2.92,0,0,1-1.4-.39,3.08,3.08,0,0,0,2.49,3.08,2.82,2.82,0,0,1-1.4,0,3.12,3.12,0,0,0,2.88,2.14,6.18,6.18,0,0,1-4.56,1.29,9,9,0,0,0,4.75,1.4,8.73,8.73,0,0,0,8.77-9.19A6.31,6.31,0,0,0,330.19,166.61Z"/><path class="cls-32" d="M343.16,197.59h-8.74a3.13,3.13,0,0,0-3.13,3.13v8.74a3.13,3.13,0,0,0,3.13,3.13h8.74a3.13,3.13,0,0,0,3.13-3.13v-8.74A3.13,3.13,0,0,0,343.16,197.59ZM341.27,202h-1.19c-.38,0-.65.16-.65.54v.7h1.89l-.16,1.89h-1.73v5h-1.89v-5H336.3V203.2h1.24V202c0-1.24.65-1.94,2.16-1.94h1.56Z"/><path class="cls-32" d="M295.79,202.87v1a.29.29,0,0,1-.27.27h-1a.26.26,0,0,1-.27-.27v-1a.29.29,0,0,1,.27-.27h1A.26.26,0,0,1,295.79,202.87Zm-3.89,5a1.36,1.36,0,1,0-1.36-1.36A1.36,1.36,0,0,0,291.91,207.88Zm8-1.4a8,8,0,1,1-8-8A8,8,0,0,1,299.91,206.48Zm-3.34-1.18h-2.62a2.24,2.24,0,0,1,.32,1.22,2.4,2.4,0,0,1-4.79,0,2.27,2.27,0,0,1,.36-1.22h-2.62v4a1.89,1.89,0,0,0,1.85,1.85h5.65a1.86,1.86,0,0,0,1.85-1.85Zm-4.66,3a1.82,1.82,0,0,0,1.81-1.85,1.69,1.69,0,0,0-.63-1.36.94.94,0,0,0-.45-.27,2.13,2.13,0,0,0-.77-.18,1.49,1.49,0,0,0-.77.18,4,4,0,0,0-.45.27,1.84,1.84,0,0,0-.63,1.36A2,2,0,0,0,291.91,208.34Zm4.66-4.7a1.86,1.86,0,0,0-1.85-1.85h-4.79v1.94h-.41v-1.94h-.41v1.94h-.41v-1.9a1.32,1.32,0,0,0-.41.09v1.81h-.41v-1.58a1.82,1.82,0,0,0-.77,1.49v1.27H290a2.41,2.41,0,0,1,3.53,0h2.94A6,6,0,0,0,296.56,203.64Z"/><path id="Fill-361" class="cls-18" d="M61.43,74.43H11.89V66.7c0-3.09,1.57-3.88,3.1-4.64l13.93-7v-8.5H44.4v8.5l13.93,7c1.52.76,3.1,1.55,3.1,4.64Z"/><path id="Fill-362" class="cls-41" d="M61.43,84.71l-9.29-9.28L28.92,52.24V46.59H44.4v8.5l13.93,7c1.52.76,3.1,1.55,3.1,4.64Z"/><path id="Fill-363" class="cls-42" d="M61.43,73.47q-.78.49-1.59,1H13.48q-.8-.46-1.59-1V66.7c0-3.09,1.57-3.88,3.1-4.64l13.93-7v-8.5H44.4v8.5l13.93,7c1.52.76,3.1,1.55,3.1,4.64Z"/><path id="Fill-364" class="cls-43" d="M61.43,73.47q-.78.49-1.59,1H51.13L28.92,52.24V46.59H44.4v8.5l13.93,7c1.52.76,3.1,1.55,3.1,4.64Z"/><path id="Fill-369" class="cls-44" d="M53.67,74.43A42.41,42.41,0,0,0,49,93a37.22,37.22,0,0,0,5.32,20,38.07,38.07,0,0,1,2.37,4.76H16.59A38.23,38.23,0,0,1,19,113a37.21,37.21,0,0,0,5.32-20,42.42,42.42,0,0,0-4.62-18.56H11.89V66.7c0-3.09,1.57-3.88,3.1-4.64L21.18,59,36.66,74.43,52.14,59l6.19,3.09c1.52.76,3.1,1.55,3.1,4.64v7.73Z"/><path id="Fill-370" class="cls-9" d="M53.67,74.43q-.43.85-.82,1.72l-9-8.94L52.14,59l6.19,3.09c1.52.76,3.1,1.55,3.1,4.64v7.73Z"/><path id="Fill-371" class="cls-9" d="M50,84.56A38.56,38.56,0,0,0,49,93a37.22,37.22,0,0,0,5.32,20,38.28,38.28,0,0,1,2.37,4.76h-.05L24,85.1V85a7.74,7.74,0,0,0,10.44-.56,3.1,3.1,0,0,1,4.42,0A7.75,7.75,0,0,0,49.4,85a2.43,2.43,0,0,1,.64-.41"/><path id="Fill-372" class="cls-1" d="M46,65.15,49,62.06h9.29c1.23.62,2.49,1.25,2.93,3.09Zm-6.19,6.19,3.1-3.09H61.43v3.09Zm-27.7-6.19c.44-1.85,1.7-2.48,2.93-3.09h9.29l3.1,3.09Zm-.16,6.19V68.24H30.47l3.1,3.09Zm41.68,40.21c.25.47.52.95.79,1.42s.63,1.11.92,1.67H18q.45-.84.92-1.67c.27-.48.54-.95.79-1.42Zm-2.69-6.19c.35,1.05.74,2.08,1.18,3.09H21.26c.44-1,.83-2,1.18-3.09Zm-1.43-6.19c.15,1.07.34,2.1.57,3.09H23.3c.23-1,.42-2,.57-3.09ZM49,93q0,1.6.09,3.09h-25q.1-1.49.1-3.09Zm.54-6.19c-.18,1-.31,2.07-.4,3.09H24.14c-.09-1-.23-2.05-.4-3.09Zm1.53-6.19c-.33,1-.63,2.06-.89,3.09H23.09c-.26-1-.55-2.07-.89-3.09Zm2.55-6.19c-.51,1-1,2-1.41,3.09H21.07c-.43-1.05-.9-2.09-1.41-3.09h34Z"/><path id="Fill-373" class="cls-45" d="M46,65.15,49,62.06h9.29c1.23.62,2.49,1.25,2.93,3.09ZM48,71.34l-3.1-3.09H61.43v3.09Zm5.63,3.09q-.43.85-.82,1.71l-1.72-1.71Z"/><path id="Fill-374" class="cls-45" d="M35.66,83.71a3.24,3.24,0,0,1,2,0Zm-6.85,6.19-3.1-3.09H49.59c-.18,1-.31,2.07-.4,3.09ZM35,96.08,31.91,93H49q0,1.6.09,3.09Zm6.19,6.18-3.1-3.09H49.45c.15,1.07.34,2.1.57,3.09Zm6.19,6.19-3.1-3.09h6.59c.35,1.05.74,2.08,1.18,3.09Zm6.19,6.19-3.1-3.09h3.09c.25.47.52.95.79,1.42s.63,1.11.92,1.67Z"/><path id="Fill-375" class="cls-46" d="M36.66,3.3A21.66,21.66,0,0,1,58.34,24.94V49.69L36.66,46.59a21.65,21.65,0,1,1,0-43.3"/><path id="Fill-376" class="cls-47" d="M52.14,25a6.19,6.19,0,0,1,6.19,6.19A12.38,12.38,0,0,0,67.09,43a12.37,12.37,0,0,1-5.14,3.08,12.37,12.37,0,0,0,5.14,3.1,12.39,12.39,0,0,1-5.14,3.09,12.37,12.37,0,0,0,5.14,3.1,12.4,12.4,0,0,1-5.14,3.09,12.39,12.39,0,0,0,5.14,3.1,12.36,12.36,0,0,1-8.75,3.62H58A14.69,14.69,0,0,1,46,42.53V24.95Z"/><path id="Fill-377" class="cls-42" d="M21.18,28a3.09,3.09,0,1,0,3.1,3.09A3.09,3.09,0,0,0,21.18,28"/><path id="Fill-378" class="cls-43" d="M52.14,28a3.09,3.09,0,1,0,3.1,3.09A3.09,3.09,0,0,0,52.14,28"/><path id="Fill-380" class="cls-43" d="M21.18,29.58a1.55,1.55,0,1,0,1.55,1.55,1.55,1.55,0,0,0-1.55-1.55"/><path id="Fill-381" class="cls-42" d="M52.14,25v13.9a15.48,15.48,0,0,1-31,0V24.95A15.46,15.46,0,0,1,27.4,12.57H39.74a6.2,6.2,0,0,1,6.2,6.19A6.2,6.2,0,0,0,52.14,25"/><path id="Fill-382" class="cls-43" d="M52.14,25v2.56l-4.39-4.38h0A6.17,6.17,0,0,0,52.14,25"/><path id="Fill-383" class="cls-1" d="M28.92,28a3.09,3.09,0,1,1-3.1,3.09A3.09,3.09,0,0,1,28.92,28"/><path id="Fill-384" class="cls-1" d="M44.4,28a3.09,3.09,0,1,1-3.1,3.09A3.09,3.09,0,0,1,44.4,28"/><path id="Fill-385" class="cls-3" d="M28.92,29.58a1.55,1.55,0,1,1-1.55,1.55,1.55,1.55,0,0,1,1.55-1.55"/><path id="Fill-386" class="cls-3" d="M44.4,29.58a1.55,1.55,0,1,1-1.55,1.55,1.55,1.55,0,0,1,1.55-1.55"/><path id="Fill-387" class="cls-48" d="M35.89,31.13a.77.77,0,0,1,1.54,0v3.09a.77.77,0,0,1-.77.77H35.11a.77.77,0,0,0,0,1.55h1.55a.77.77,0,1,1,0,1.54H35.11a2.32,2.32,0,1,1,0-4.64h.78Z"/><path id="Fill-388" class="cls-1" d="M27.37,30.36a.77.77,0,1,1-.77.77.77.77,0,0,1,.77-.77"/><path id="Fill-389" class="cls-1" d="M42.85,30.36a.77.77,0,1,1-.77.77.77.77,0,0,1,.77-.77"/><path id="Fill-390" class="cls-48" d="M24.32,25.91a7,7,0,0,1,9.21,0l-1,1.15a5.44,5.44,0,0,0-7.17,0Z"/><path id="Fill-391" class="cls-48" d="M39.8,25.91a7,7,0,0,1,9.21,0l-1,1.15a5.44,5.44,0,0,0-7.17,0Z"/><path id="Fill-392" class="cls-48" d="M29.7,42a.77.77,0,0,1,1.55,0,.78.78,0,0,0,.23.55h0a.78.78,0,0,0,.55.23h9.29a.76.76,0,0,0,.77-.77.77.77,0,0,1,1.55,0,2.31,2.31,0,0,1-.68,1.64h0a2.3,2.3,0,0,1-1.64.68H32a2.31,2.31,0,0,1-1.64-.68h0A2.31,2.31,0,0,1,29.7,42"/><path id="Fill-394" class="cls-49" d="M36.66,27.26a3.86,3.86,0,0,1,2.68,1.08,2.33,2.33,0,0,1,2-1.08H52.92a.77.77,0,1,1,0,1.55H50.59v2.32A3.88,3.88,0,0,1,46.73,35H42.85A3.88,3.88,0,0,1,39,31.13a2.32,2.32,0,0,0-2.32-2.32L36,28ZM49,28.81H41.31a.77.77,0,0,0-.77.77v1.55a2.33,2.33,0,0,0,2.32,2.32h3.87A2.33,2.33,0,0,0,49,31.13Z"/><path id="Fill-395" class="cls-50" d="M32,28.81H24.28v2.32a2.33,2.33,0,0,0,2.32,2.32h3.87a2.33,2.33,0,0,0,2.32-2.32V29.58a.78.78,0,0,0-.77-.77Zm-11.61,0a.77.77,0,1,1,0-1.55H32a2.33,2.33,0,0,1,2,1.08,3.86,3.86,0,0,1,2.68-1.08v1.55a2.32,2.32,0,0,0-2.32,2.32A3.88,3.88,0,0,1,30.47,35H26.6a3.88,3.88,0,0,1-3.87-3.87V28.81Z"/><path id="Fill-398" class="cls-42" d="M21.18,140.92a.77.77,0,0,1-1.55,0v-3.09a.77.77,0,0,0-1.55,0v4.64a.77.77,0,0,1-1.55,0v.76a.77.77,0,1,1-1.55,0v-.77a.77.77,0,0,1-1.55,0v-2.32a.77.77,0,0,1-1.55,0V74.43h9.29v3.05l-1.55,18.6V127l.57,1.13a8.87,8.87,0,0,1,1,4.15Z"/><path id="Fill-404" class="cls-1" d="M19.63,35.77a1.55,1.55,0,1,1-1.55,1.55,1.55,1.55,0,0,1,1.55-1.55"/><path id="Fill-396" class="cls-42" d="M52.14,140.92a.77.77,0,0,0,1.55,0v-3.09a.77.77,0,1,1,1.55,0v4.64a.77.77,0,0,0,1.55,0v.76a.77.77,0,0,0,1.55,0v-.77a.77.77,0,0,0,1.55,0v-2.32a.77.77,0,0,0,1.55,0V74.43H52.14v3.05l1.55,18.6V127l-.57,1.13a8.87,8.87,0,0,0-1,4.15Z"/></svg>