<?xml version="1.0" encoding="utf-8"?>
<!-- Generator: Adobe Illustrator 21.0.2, SVG Export Plug-In . SVG Version: 6.00 Build 0)  -->
<svg version="1.1" id="Layer_1" xmlns="http://www.w3.org/2000/svg" xmlns:xlink="http://www.w3.org/1999/xlink" x="0px" y="0px"
	 viewBox="0 0 360 360" style="enable-background:new 0 0 360 360;" xml:space="preserve">
<style type="text/css">
	.st0{fill:#5B4D45;}
	.st1{fill:#F8BA2E;}
	.st2{fill:#736357;}
	.st3{fill:#FFFFFF;}
	.st4{fill:#374252;}
	.st5{fill:#D3D8E0;}
	.st6{fill:#EA6A13;}
	.st7{fill:#323131;}
	.st8{fill:#3B5998;}
	.st9{fill:#0084B4;}
</style>
<path class="st0" d="M97.5,237.4c-1.3-29.3,18.8-51.9,42.2-50.6c23.5,1.3,33.4,25.9,33.3,44.2c-0.1,48.1-41.6,107.9-60.5,111.7
	C103.5,312.8,98.8,269,97.5,237.4z"/>
<path class="st1" d="M176.3,355h-19.7c-2,0-3.7-1.6-3.7-3.7c0-2,1.6-3.7,3.7-3.7h16.9l13.7-50.7c0.5-2,2.5-3.1,4.5-2.6
	s3.1,2.5,2.6,4.5l-14.4,53.4C179.4,353.9,177.9,355,176.3,355z"/>
<path class="st1" d="M219.1,355h-19.7c-2,0-3.7-1.6-3.7-3.7c0-2,1.6-3.7,3.7-3.7h16.9l9.6-37.3c0.5-2,2.5-3.1,4.5-2.6
	s3.1,2.5,2.6,4.5l-10.3,40C222.3,353.9,220.8,355,219.1,355z"/>
<g>
	<path class="st2" d="M254.3,153.7c0-38.3-31-69.3-69.3-69.3s-69.3,31-69.3,69.3c0,102.4,52.4,184.1,143.8,184.1
		c0,0-5.2-64.3-5.2-99.8S254.3,153.7,254.3,153.7L254.3,153.7L254.3,153.7z"/>
	<path class="st3" d="M213.3,127.5c-12.8,0-23.1,10.3-23.1,23.1v29.1h-10.5v-29.1c0-12.8-10.3-23.1-23.1-23.1s-23.1,10.3-23.1,23.1
		c0,0,0,2.1,0,3.1c0,28.4,23,51.4,51.4,51.4s51.5-23,51.5-51.4c0-1,0-3.1,0-3.1C236.4,137.8,226.1,127.5,213.3,127.5z"/>
	<path class="st1" d="M190.2,179.7c0,4.2-5.3,10.8-5.3,10.8s-5.2-6.6-5.2-10.8H190.2z"/>
	<g>
		<path class="st4" d="M210.2,167.1c3.9,0,7.4-3.2,7.4-7v-8.5c0-3.9-3.5-7-7.4-7s-7.4,3.2-7.4,7v8.5
			C202.8,164,206.3,167.1,210.2,167.1z"/>
	</g>
	<g>
		<path class="st4" d="M159.8,167.1c-3.9,0-7.3-3.2-7.3-7v-8.5c0-3.9,3.5-7,7.3-7s7.4,3.2,7.4,7v8.5
			C167.1,164,163.7,167.1,159.8,167.1z"/>
	</g>
</g>
<path class="st0" d="M296,229.1c-6.3-28.6-31.5-45.3-53.8-38.1c-22.4,7.2-25.6,33.6-20.8,51.3c12.5,46.5,67.9,93.6,87.2,92.4
	C309.5,303.5,302.8,259.9,296,229.1z"/>
<path class="st5" d="M173,254.4c0-5.5-4.2-10.3-9.5-10.3H28.4c-5.2,0-9.8,4.9-9.8,10.3v91.4c0,5.5,4.5,9.2,9.8,9.2h135.1
	c5.2,0,9.5-3.8,9.5-9.2V254.4z"/>
<g>
	<g>
		<path class="st3" d="M76.1,270.1l-28.5,37.6c-1.4,1.9-4.1,2.2-5.9,0.8l-12.9-9.7c-1.9-1.4-2.2-4.1-0.8-5.9l28.5-37.6
			c1.4-1.9,4.1-2.2,5.9-0.8l12.9,9.7C77.1,265.6,77.5,268.3,76.1,270.1z"/>
		<path class="st6" d="M77.6,267.7c0,1.3-0.4,2.6-1.2,3.6l-27.5,36.3c-1,1.3-2.4,2.1-4,2.3c-1.6,0.2-3.2-0.2-4.5-1.2l-11.5-8.8
			c-2.6-2-3.2-5.8-1.2-8.4l27.5-36.3c2-2.6,5.8-3.2,8.4-1.2l11.5,8.8c1.3,1,2.1,2.4,2.3,4C77.6,267.2,77.6,267.5,77.6,267.7z
			 M28.5,295.3c0,1.2,0.6,2.5,1.6,3.3l11.5,8.8c0.9,0.7,1.9,0.9,3,0.8s2-0.7,2.7-1.6l27.5-36.3c0.7-0.9,0.9-1.9,0.8-3
			s-0.7-2-1.6-2.7l-11.5-8.8c-1.8-1.4-4.3-1-5.7,0.8l-27.5,36.3C28.7,293.5,28.5,294.4,28.5,295.3z"/>
	</g>
	<path class="st6" d="M48,300.1l-2.4,1.6l-3.2-2.4l2.4-1.6L48,300.1"/>
	<path class="st6" d="M48.3,299.7l0.9-2.8l-3.2-2.4l-0.9,2.7L48.3,299.7"/>
	<path class="st6" d="M42.3,298.9l1.1-2.7l2.2-1.5l-0.9,2.6L42.3,298.9"/>
	<path class="st6" d="M41.6,299.3l-2.4,1.6l-3.2-2.4l2.4-1.6L41.6,299.3"/>
	<path class="st6" d="M41.9,298.9l0.9-2.8l-3.2-2.4l-0.9,2.7L41.9,298.9"/>
	<path class="st6" d="M35.9,298.1l1.1-2.7l2.2-1.5l-0.9,2.6L35.9,298.1"/>
	<path class="st6" d="M45.5,294.2l-2.4,1.6l-3.2-2.4l2.4-1.6L45.5,294.2"/>
	<path class="st6" d="M45.8,293.8l0.9-2.8l-3.2-2.4l-0.9,2.7L45.8,293.8"/>
	<path class="st6" d="M39.8,293l1.1-2.7l2.2-1.5l-0.9,2.6L39.8,293"/>
	<path class="st6" d="M43,288.3l-2.4,1.6l-3.2-2.4l2.4-1.6L43,288.3"/>
	<path class="st6" d="M43.3,287.9l0.9-2.8l-3.2-2.4l-0.9,2.7L43.3,287.9"/>
	<path class="st6" d="M37.3,287l1.1-2.7l2.2-1.5l-0.9,2.6L37.3,287"/>
	<path class="st6" d="M46.8,283.2l-2.4,1.6l-3.2-2.4l2.4-1.6L46.8,283.2"/>
	<path class="st6" d="M47.1,282.8L48,280l-3.2-2.4l-0.9,2.7L47.1,282.8"/>
	<path class="st6" d="M41.1,282l1.1-2.7l2.2-1.5l-0.9,2.6L41.1,282"/>
	<path class="st6" d="M52.8,289.5l2,2.7l-0.2,0.3l-2.3-0.9l1.5,2l-0.2,0.3l-3.1-1.2l0.3-0.4l2.3,0.9l-1.5-2l0.2-0.3l2.3,0.9l-1.5-2
		L52.8,289.5L52.8,289.5z"/>
	<path class="st6" d="M52.8,289.5l2,2.7l-0.2,0.3l-2.3-0.9l1.5,2l-0.2,0.3l-3.1-1.2l0.3-0.4l2.3,0.9l-1.5-2l0.2-0.3l2.3,0.9l-1.5-2
		L52.8,289.5L52.8,289.5z"/>
	<path class="st6" d="M56.1,288.8l0.4-0.3c0.2,0.2,0.2,0.5,0.2,0.8s-0.1,0.6-0.3,0.8c-0.3,0.3-0.6,0.5-1,0.6c-0.4,0-0.8-0.1-1.2-0.4
		s-0.6-0.7-0.7-1.1c-0.1-0.4,0-0.8,0.3-1.1c0.3-0.3,0.6-0.5,1-0.5s0.8,0.1,1.3,0.5l-1.4,1.8c0.4,0.3,0.7,0.4,1,0.3s0.5-0.2,0.6-0.4
		C56.4,289.5,56.4,289.2,56.1,288.8L56.1,288.8z M55.4,288.2c-0.1-0.1-0.3-0.2-0.4-0.2c-0.1,0-0.3,0-0.5,0s-0.3,0.1-0.4,0.3
		c-0.1,0.2-0.2,0.4-0.2,0.7c0,0.2,0.2,0.5,0.4,0.7L55.4,288.2L55.4,288.2z"/>
	<path class="st6" d="M56.1,288.8l0.4-0.3c0.2,0.2,0.2,0.5,0.2,0.8s-0.1,0.6-0.3,0.8c-0.3,0.3-0.6,0.5-1,0.6c-0.4,0-0.8-0.1-1.2-0.4
		s-0.6-0.7-0.7-1.1c-0.1-0.4,0-0.8,0.3-1.1c0.3-0.3,0.6-0.5,1-0.5s0.8,0.1,1.3,0.5l-1.4,1.8c0.4,0.3,0.7,0.4,1,0.3s0.5-0.2,0.6-0.4
		C56.4,289.5,56.4,289.2,56.1,288.8L56.1,288.8z M55.4,288.2c-0.1-0.1-0.3-0.2-0.4-0.2c-0.1,0-0.3,0-0.5,0s-0.3,0.1-0.4,0.3
		c-0.1,0.2-0.2,0.4-0.2,0.7c0,0.2,0.2,0.5,0.4,0.7L55.4,288.2L55.4,288.2z"/>
	<path class="st6" d="M57.7,288.3l-0.1,0.2l-3.4-2.6l0.3-0.4l1.3,1c-0.2-0.4-0.2-0.8,0.1-1.1c0.2-0.3,0.5-0.4,0.9-0.5
		c0.4,0,0.8,0.1,1.2,0.5c0.4,0.3,0.6,0.6,0.7,1c0.1,0.4,0,0.7-0.2,1c-0.3,0.3-0.6,0.5-1.1,0.4L57.7,288.3L57.7,288.3z M56.9,287.3
		c0.3,0.2,0.5,0.2,0.7,0.2c0.2-0.1,0.4-0.2,0.5-0.3c0.2-0.2,0.2-0.4,0.1-0.7c-0.1-0.3-0.3-0.5-0.6-0.7s-0.6-0.4-0.9-0.4
		c-0.3,0-0.5,0.1-0.7,0.3c-0.1,0.2-0.2,0.4-0.1,0.6c0,0.2,0.1,0.4,0.3,0.6L56.9,287.3L56.9,287.3z"/>
	<path class="st6" d="M57.7,288.3l-0.1,0.2l-3.4-2.6l0.3-0.4l1.3,1c-0.2-0.4-0.2-0.8,0.1-1.1c0.2-0.3,0.5-0.4,0.9-0.5
		c0.4,0,0.8,0.1,1.2,0.5c0.4,0.3,0.6,0.6,0.7,1c0.1,0.4,0,0.7-0.2,1c-0.3,0.3-0.6,0.5-1.1,0.4L57.7,288.3L57.7,288.3z M56.9,287.3
		c0.3,0.2,0.5,0.2,0.7,0.2c0.2-0.1,0.4-0.2,0.5-0.3c0.2-0.2,0.2-0.4,0.1-0.7c-0.1-0.3-0.3-0.5-0.6-0.7s-0.6-0.4-0.9-0.4
		c-0.3,0-0.5,0.1-0.7,0.3c-0.1,0.2-0.2,0.4-0.1,0.6c0,0.2,0.1,0.4,0.3,0.6L56.9,287.3L56.9,287.3z"/>
	<path class="st6" d="M59.4,284.8l0.2-0.4c0.4,0.2,0.7,0,1.1-0.4c0.1-0.2,0.2-0.3,0.2-0.5s0-0.3-0.2-0.4c-0.2-0.2-0.4-0.1-0.7,0.1
		l-0.5,0.5c-0.2,0.2-0.4,0.3-0.6,0.3c-0.2,0-0.4,0-0.6-0.2c-0.2-0.2-0.3-0.4-0.3-0.7c0-0.3,0.1-0.6,0.3-0.8c0.4-0.6,0.9-0.7,1.4-0.5
		l-0.2,0.4c-0.3-0.1-0.6,0-0.9,0.3c-0.1,0.2-0.2,0.3-0.2,0.5s0,0.3,0.2,0.4s0.4,0.1,0.7-0.1l0.5-0.4c0.5-0.4,0.9-0.5,1.3-0.2
		c0.2,0.2,0.3,0.4,0.3,0.7c0,0.3-0.1,0.6-0.4,0.9C60.5,284.8,59.9,285,59.4,284.8L59.4,284.8z"/>
	<path class="st6" d="M59.4,284.8l0.2-0.4c0.4,0.2,0.7,0,1.1-0.4c0.1-0.2,0.2-0.3,0.2-0.5s0-0.3-0.2-0.4c-0.2-0.2-0.4-0.1-0.7,0.1
		l-0.5,0.5c-0.2,0.2-0.4,0.3-0.6,0.3c-0.2,0-0.4,0-0.6-0.2c-0.2-0.2-0.3-0.4-0.3-0.7c0-0.3,0.1-0.6,0.3-0.8c0.4-0.6,0.9-0.7,1.4-0.5
		l-0.2,0.4c-0.3-0.1-0.6,0-0.9,0.3c-0.1,0.2-0.2,0.3-0.2,0.5s0,0.3,0.2,0.4s0.4,0.1,0.7-0.1l0.5-0.4c0.5-0.4,0.9-0.5,1.3-0.2
		c0.2,0.2,0.3,0.4,0.3,0.7c0,0.3-0.1,0.6-0.4,0.9C60.5,284.8,59.9,285,59.4,284.8L59.4,284.8z"/>
	<path class="st6" d="M62.5,280.4l0.4-0.3c0.2,0.2,0.2,0.5,0.2,0.8s-0.1,0.6-0.3,0.8c-0.3,0.3-0.6,0.5-1,0.6c-0.4,0-0.8-0.1-1.2-0.4
		s-0.6-0.7-0.7-1.1c-0.1-0.4,0-0.8,0.3-1.1c0.3-0.3,0.6-0.5,1-0.5s0.8,0.1,1.3,0.5l-1.4,1.8c0.4,0.3,0.7,0.4,1,0.3s0.5-0.2,0.6-0.4
		C62.7,281.2,62.7,280.8,62.5,280.4L62.5,280.4z M61.7,279.9c-0.1-0.1-0.3-0.2-0.4-0.2c-0.1,0-0.3,0-0.5,0s-0.3,0.1-0.4,0.3
		c-0.1,0.2-0.2,0.4-0.2,0.7c0,0.2,0.2,0.5,0.4,0.7L61.7,279.9L61.7,279.9z"/>
	<path class="st6" d="M62.5,280.4l0.4-0.3c0.2,0.2,0.2,0.5,0.2,0.8s-0.1,0.6-0.3,0.8c-0.3,0.3-0.6,0.5-1,0.6c-0.4,0-0.8-0.1-1.2-0.4
		s-0.6-0.7-0.7-1.1c-0.1-0.4,0-0.8,0.3-1.1c0.3-0.3,0.6-0.5,1-0.5s0.8,0.1,1.3,0.5l-1.4,1.8c0.4,0.3,0.7,0.4,1,0.3s0.5-0.2,0.6-0.4
		C62.7,281.2,62.7,280.8,62.5,280.4L62.5,280.4z M61.7,279.9c-0.1-0.1-0.3-0.2-0.4-0.2c-0.1,0-0.3,0-0.5,0s-0.3,0.1-0.4,0.3
		c-0.1,0.2-0.2,0.4-0.2,0.7c0,0.2,0.2,0.5,0.4,0.7L61.7,279.9L61.7,279.9z"/>
	<path class="st6" d="M64.2,279.8l-0.3,0.4l-2.5-1.9l0.3-0.3l0.6,0.4c-0.2-0.3-0.3-0.6-0.3-0.8c0-0.2,0.1-0.3,0.2-0.5l0.1-0.1
		l0.4,0.3l-0.1,0.1c-0.2,0.2-0.2,0.5-0.2,0.7c0.1,0.3,0.2,0.5,0.5,0.7L64.2,279.8L64.2,279.8z"/>
	<path class="st6" d="M64.2,279.8l-0.3,0.4l-2.5-1.9l0.3-0.3l0.6,0.4c-0.2-0.3-0.3-0.6-0.3-0.8c0-0.2,0.1-0.3,0.2-0.5l0.1-0.1
		l0.4,0.3l-0.1,0.1c-0.2,0.2-0.2,0.5-0.2,0.7c0.1,0.3,0.2,0.5,0.5,0.7L64.2,279.8L64.2,279.8z"/>
	<path class="st6" d="M64.2,274.5l1.9,2.8l-0.3,0.4l-3.2-1l0.3-0.4l2.6,0.9l-1.5-2.3L64.2,274.5L64.2,274.5z"/>
	<path class="st6" d="M64.2,274.5l1.9,2.8l-0.3,0.4l-3.2-1l0.3-0.4l2.6,0.9l-1.5-2.3L64.2,274.5L64.2,274.5z"/>
	<path class="st6" d="M63.5,273.5l0.3-0.4l0.4,0.3l-0.3,0.4L63.5,273.5z M64.4,274.2l0.3-0.4l2.5,1.9l-0.3,0.4L64.4,274.2z"/>
	<path class="st6" d="M63.5,273.5l0.3-0.4l0.4,0.3l-0.3,0.4L63.5,273.5z M64.4,274.2l0.3-0.4l2.5,1.9l-0.3,0.4L64.4,274.2z"/>
	<path class="st6" d="M67.9,273l0.3-0.3c0.2,0.3,0.4,0.5,0.4,0.8s-0.1,0.6-0.3,0.8c-0.3,0.4-0.6,0.5-1,0.5s-0.8-0.2-1.2-0.4
		c-0.4-0.3-0.6-0.6-0.7-1s0-0.7,0.2-1.1c0.2-0.3,0.5-0.4,0.8-0.5c0.3,0,0.6,0,0.9,0.2l-0.2,0.4c-0.5-0.3-0.8-0.2-1.1,0.1
		c-0.2,0.2-0.2,0.5-0.1,0.7c0.1,0.3,0.3,0.5,0.6,0.7c0.3,0.2,0.6,0.4,0.9,0.4s0.5-0.1,0.6-0.3C68.3,273.8,68.3,273.4,67.9,273
		L67.9,273z"/>
	<path class="st6" d="M67.9,273l0.3-0.3c0.2,0.3,0.4,0.5,0.4,0.8s-0.1,0.6-0.3,0.8c-0.3,0.4-0.6,0.5-1,0.5s-0.8-0.2-1.2-0.4
		c-0.4-0.3-0.6-0.6-0.7-1s0-0.7,0.2-1.1c0.2-0.3,0.5-0.4,0.8-0.5c0.3,0,0.6,0,0.9,0.2l-0.2,0.4c-0.5-0.3-0.8-0.2-1.1,0.1
		c-0.2,0.2-0.2,0.5-0.1,0.7c0.1,0.3,0.3,0.5,0.6,0.7c0.3,0.2,0.6,0.4,0.9,0.4s0.5-0.1,0.6-0.3C68.3,273.8,68.3,273.4,67.9,273
		L67.9,273z"/>
	<path class="st6" d="M70,270.5l0.4-0.3c0.2,0.2,0.2,0.5,0.2,0.8s-0.1,0.6-0.3,0.8c-0.3,0.3-0.6,0.5-1,0.6c-0.4,0-0.8-0.1-1.2-0.4
		c-0.4-0.3-0.6-0.7-0.7-1.1s0-0.8,0.3-1.1c0.3-0.3,0.6-0.5,1-0.5s0.8,0.1,1.3,0.5l-1.4,1.8c0.4,0.3,0.7,0.4,1,0.3s0.5-0.2,0.6-0.4
		C70.3,271.2,70.3,270.9,70,270.5L70,270.5z M69.2,269.9c-0.1-0.1-0.3-0.2-0.4-0.2s-0.3,0-0.5,0s-0.3,0.1-0.4,0.3
		c-0.1,0.2-0.2,0.4-0.2,0.7c0,0.2,0.2,0.5,0.4,0.7L69.2,269.9L69.2,269.9z"/>
	<path class="st6" d="M70,270.5l0.4-0.3c0.2,0.2,0.2,0.5,0.2,0.8s-0.1,0.6-0.3,0.8c-0.3,0.3-0.6,0.5-1,0.6c-0.4,0-0.8-0.1-1.2-0.4
		c-0.4-0.3-0.6-0.7-0.7-1.1s0-0.8,0.3-1.1c0.3-0.3,0.6-0.5,1-0.5s0.8,0.1,1.3,0.5l-1.4,1.8c0.4,0.3,0.7,0.4,1,0.3s0.5-0.2,0.6-0.4
		C70.3,271.2,70.3,270.9,70,270.5L70,270.5z M69.2,269.9c-0.1-0.1-0.3-0.2-0.4-0.2s-0.3,0-0.5,0s-0.3,0.1-0.4,0.3
		c-0.1,0.2-0.2,0.4-0.2,0.7c0,0.2,0.2,0.5,0.4,0.7L69.2,269.9L69.2,269.9z"/>
	<path class="st6" d="M70.6,269.9l0.2-0.4c0.4,0.2,0.7,0,1.1-0.4c0.1-0.2,0.2-0.3,0.2-0.5s0-0.3-0.2-0.4c-0.2-0.2-0.4-0.1-0.7,0.1
		l-0.5,0.5c-0.2,0.2-0.4,0.3-0.6,0.3s-0.4,0-0.6-0.2s-0.3-0.4-0.3-0.7c0-0.3,0.1-0.6,0.3-0.8c0.4-0.6,0.9-0.7,1.4-0.5l-0.2,0.4
		c-0.3-0.1-0.6,0-0.9,0.3c-0.1,0.2-0.2,0.3-0.2,0.5s0,0.3,0.2,0.4s0.4,0.1,0.7-0.1L71,268c0.5-0.4,0.9-0.5,1.3-0.2
		c0.2,0.2,0.3,0.4,0.3,0.7c0,0.3-0.1,0.6-0.4,0.9C71.7,270,71.2,270.2,70.6,269.9L70.6,269.9z"/>
	<path class="st6" d="M70.6,269.9l0.2-0.4c0.4,0.2,0.7,0,1.1-0.4c0.1-0.2,0.2-0.3,0.2-0.5s0-0.3-0.2-0.4c-0.2-0.2-0.4-0.1-0.7,0.1
		l-0.5,0.5c-0.2,0.2-0.4,0.3-0.6,0.3s-0.4,0-0.6-0.2s-0.3-0.4-0.3-0.7c0-0.3,0.1-0.6,0.3-0.8c0.4-0.6,0.9-0.7,1.4-0.5l-0.2,0.4
		c-0.3-0.1-0.6,0-0.9,0.3c-0.1,0.2-0.2,0.3-0.2,0.5s0,0.3,0.2,0.4s0.4,0.1,0.7-0.1L71,268c0.5-0.4,0.9-0.5,1.3-0.2
		c0.2,0.2,0.3,0.4,0.3,0.7c0,0.3-0.1,0.6-0.4,0.9C71.7,270,71.2,270.2,70.6,269.9L70.6,269.9z"/>
	<path class="st6" d="M56.5,273.3l-0.6-0.5c-0.1-0.1-0.1-0.2,0-0.3l2.1-2.7c0.1-0.1,0.2-0.1,0.3,0l0.5,0.4c0.1,0.1,0.1,0.2,0.2,0.5
		l0.9,3c0.4-0.5,0.9-1,1.5-1.3c0.1-0.1,0.3,0,0.3,0l0.7,0.5c0.1,0.1,0.1,0.2,0,0.3c-1.1,0.5-2,1.6-2.2,2.9c0,0.1-0.2,0.2-0.3,0.1
		l-0.6-0.5c-0.1-0.1-0.3-0.2-0.3-0.4l-1.1-3.4l-1.1,1.4C56.7,273.4,56.6,273.4,56.5,273.3"/>
	<path class="st6" d="M52.9,286l-0.6,0.8c-0.1,0.1-0.2,0.1-0.3,0l-4.3-3.2c-0.1-0.1-0.1-0.2,0-0.3l0.6-0.8c0.1-0.1,0.2-0.1,0.3,0
		l0.6,0.4l0,0c-0.4-0.6-0.3-1.2,0-1.7c0.4-0.5,0.9-0.7,1.6-0.5c-0.4-0.6-0.3-1.3,0.1-1.7c0.3-0.3,0.7-0.6,1.2-0.6
		c0.6,0,1,0.5,1.5,0.8l2.7,2c0.1,0.1,0.1,0.2,0,0.3l-0.6,0.8c-0.1,0.1-0.2,0.1-0.3,0l-2.3-1.7c-0.2-0.1-0.6-0.5-0.8-0.6
		c-0.3-0.2-0.6,0-0.7,0.2c-0.2,0.2-0.2,0.5,0,0.8c0.2,0.2,0.5,0.5,0.8,0.7l2.3,1.7c0.1,0.1,0.1,0.2,0,0.3l-0.6,0.8
		c-0.1,0.1-0.2,0.1-0.3,0l-2.3-1.7c-0.5-0.4-1.1-1-1.6-0.4s0.2,1.1,0.7,1.5l2.3,1.7C53,285.8,53,285.9,52.9,286"/>
	<path class="st6" d="M59.5,267.6c0.9-1.2,2.5-1.1,3.8-0.1s1.8,2.5,0.9,3.7s-2.5,1.1-3.8,0.1C59.2,270.3,58.6,268.8,59.5,267.6
		L59.5,267.6z M60.5,268.3c-0.5,0.6,0.3,1.3,0.9,1.7c0.5,0.4,1.5,1.2,2,0.5c0.5-0.6-0.3-1.3-0.8-1.7c-0.4-0.3-0.8-0.6-1.2-0.7
		C61,268,60.7,268.1,60.5,268.3L60.5,268.3z"/>
	<path class="st6" d="M67,267.5l-0.6,0.8c-0.1,0.1-0.2,0.1-0.3,0l-4.3-3.2c-0.1-0.1-0.1-0.2,0-0.3l0.6-0.8c0.1-0.1,0.2-0.1,0.2-0.1
		l0.7,0.5l0,0c-0.4-0.7-0.4-1.2,0-1.8c0.3-0.4,0.7-0.6,1.2-0.6s1.1,0.5,1.5,0.8l2.7,2c0.1,0.1,0.1,0.2,0,0.3l-0.6,0.8
		c-0.1,0.1-0.2,0.1-0.2,0l-2.3-1.8c-0.5-0.4-1.1-0.9-1.5-0.4c-0.2,0.2-0.2,0.5,0,0.7c0.2,0.3,0.4,0.5,0.7,0.7l2.3,1.7
		C67,267.3,67,267.4,67,267.5"/>
	<path class="st6" d="M59.3,276.4c0-0.1-0.1-0.2-0.2-0.2c-0.3,0-0.6,0-1-0.3l-1.3-1c-0.5-0.4-1-0.8-1.7-0.7
		c-0.5,0.1-1.1,0.5-1.4,0.9c-0.6,0.8-1,1.9-0.1,2.8c0.1,0.1,0.2,0.1,0.3,0l0.7-0.7c0.1-0.1,0-0.2,0-0.3c-0.3-0.3-0.2-0.7,0-1
		c0.1-0.2,0.3-0.3,0.6-0.3s0.5,0.2,0.7,0.4l0.1,0.1c-0.3,0.5-0.8,1.2-0.9,1.8c-0.2,0.7,0,1.4,0.7,1.9c0.9,0.7,1.7,0.4,2.2-0.3
		c0.4-0.6,0.6-1,0.4-1.8c0.3,0,0.5,0,0.9-0.1c0.1,0,0.1-0.1,0.1-0.2l0,0C59.4,277.2,59.3,276.7,59.3,276.4z M57.4,278.4
		c-0.2,0.3-0.6,0.3-1,0c-0.7-0.5-0.4-1.3,0.1-1.9l0.2,0.1c0.3,0.2,0.6,0.4,0.8,0.8C57.6,277.9,57.6,278.2,57.4,278.4z"/>
	<path class="st6" d="M51.1,287.2c0-0.1-0.1-0.2-0.2-0.2c-0.3,0-0.6,0-1-0.3l-1.3-1c-0.5-0.4-1-0.8-1.7-0.7
		c-0.5,0.1-1.1,0.5-1.4,0.9c-0.6,0.8-1,1.9-0.1,2.8c0.1,0.1,0.2,0.1,0.3,0l0.7-0.7c0.1-0.1,0-0.2,0-0.3c-0.3-0.3-0.2-0.7,0-1
		c0.1-0.2,0.3-0.3,0.6-0.3s0.5,0.2,0.7,0.4l0.1,0.1c-0.3,0.5-0.8,1.2-0.9,1.8c-0.2,0.7,0,1.4,0.7,1.9c0.9,0.7,1.7,0.4,2.2-0.3
		c0.4-0.6,0.6-1,0.4-1.8c0.3,0,0.5,0,0.9-0.1c0.1,0,0.1-0.1,0.1-0.2l0,0C51.2,288,51.1,287.5,51.1,287.2z M49.2,289.2
		c-0.2,0.3-0.6,0.3-1,0c-0.7-0.5-0.4-1.3,0.1-1.9l0.2,0.1c0.3,0.2,0.6,0.4,0.8,0.8C49.4,288.7,49.4,289,49.2,289.2z"/>
</g>
<path class="st7" d="M143.8,319.1v2.2c0,0.3-0.3,0.6-0.6,0.6H141c-0.4,0-0.6-0.3-0.6-0.6v-2.2c0-0.3,0.3-0.6,0.6-0.6h2.2
	C143.5,318.5,143.8,318.7,143.8,319.1z M135.2,330.2c1.7,0,3-1.3,3-3s-1.3-3-3-3s-3,1.3-3,3S133.6,330.2,135.2,330.2z M152.9,327.1
	c0,9.8-7.9,17.7-17.7,17.7s-17.7-7.9-17.7-17.7s7.9-17.7,17.7-17.7S152.9,317.3,152.9,327.1z M145.5,324.5h-5.8
	c0.5,0.8,0.7,1.7,0.7,2.7c0,2.9-2.4,5.3-5.3,5.3c-2.9,0-5.3-2.4-5.3-5.3c0-1,0.3-1.9,0.8-2.7h-5.8v8.8c0,2.2,1.9,4.1,4.1,4.1h12.5
	c2.2,0,4.1-1.8,4.1-4.1V324.5z M135.2,331.2c2.2,0,4-1.8,4-4.1c0-1.2-0.5-2.3-1.4-3c-0.3-0.3-0.6-0.5-1-0.6
	c-0.5-0.2-1.1-0.4-1.7-0.4c-0.6,0-1.2,0.1-1.7,0.4c-0.4,0.2-0.7,0.4-1,0.6c-0.8,0.7-1.4,1.8-1.4,3
	C131.2,329.4,133,331.2,135.2,331.2z M145.5,320.8c0-2.2-1.8-4.1-4.1-4.1h-10.6v4.3h-0.9v-4.3h-0.9v4.3h-0.9v-4.2
	c-0.3,0-0.6,0.1-0.9,0.2v4h-0.9v-3.5c-1,0.7-1.7,1.9-1.7,3.3v2.8h6.4c1-1.1,2.4-1.7,3.9-1.7c1.5,0,2.9,0.6,3.9,1.7h6.5
	C145.5,323.6,145.5,320.8,145.5,320.8z"/>
<path class="st8" d="M74.2,314.9l-16.2,0c-3.2,0-5.8,2.6-5.8,5.8l0,16.2c0,3.2,2.6,5.8,5.8,5.8l16.2,0c3.2,0,5.8-2.6,5.8-5.8l0-16.2
	C80,317.5,77.4,314.9,74.2,314.9z M70.7,323l-2.2,0c-0.7,0-1.2,0.3-1.2,1l0,1.3l3.5,0l-0.3,3.5l-3.2,0l0,9.3l-3.5,0l0-9.3l-2.3,0
	l0-3.5l2.3,0l0-2.2c0-2.3,1.2-3.6,4-3.6l2.9,0L70.7,323z"/>
<path class="st9" d="M163,264.1c-1.4,0.6-2.9,1.1-4.6,1.2c1.6-1,2.9-2.5,3.5-4.4c-1.5,0.9-3.2,1.6-5,1.9c-1.4-1.5-3.5-2.5-5.8-2.5
	c-5.1,0-8.9,4.8-7.7,9.7c-6.6-0.3-12.4-3.5-16.3-8.3c-2.1,3.6-1.1,8.2,2.5,10.6c-1.3,0-2.5-0.4-3.6-1c-0.1,3.7,2.5,7.1,6.4,7.9
	c-1.1,0.3-2.3,0.4-3.6,0.1c1,3.1,3.9,5.4,7.4,5.5c-3.3,2.6-7.5,3.8-11.7,3.3c3.5,2.2,7.7,3.6,12.2,3.6c14.7,0,23-12.4,22.5-23.6
	C160.6,267.1,161.9,265.7,163,264.1z"/>
<path class="st3" d="M112.1,300c-1.2,3.3-4.6,9.3-8.1,9.3c-2.4,0-3.1-1.4-5.8-1.4c-2.7,0-3.5,1.4-5.8,1.4c-3.8,0.1-9.6-8.5-9.6-16.1
	c0-7,4.8-10.4,9.1-10.5c2.3,0,4.4,1.5,5.8,1.5c1.4,0,4-1.9,6.7-1.6c1.1,0,4.4,0.5,6.4,3.5C105.3,289.8,106.2,297.3,112.1,300z
	 M104.4,274.2c-4.1,0.2-7.5,4.5-7,8.1C101.2,282.6,104.9,278.3,104.4,274.2z"/>
</svg>
